<svg xmlns="http://www.w3.org/2000/svg" width="534.574" height="327.997" viewBox="0 0 534.574 327.997">
  <g id="communication" transform="translate(-309.589 -286.448)">
    <path id="Path_150" data-name="Path 150" d="M438.328,377.957V329.413a27.755,27.755,0,0,1,27.755-27.755H532.4a27.755,27.755,0,0,1,27.755,27.755v59.44A27.755,27.755,0,0,1,532.4,416.608H512.014l-10.433,12.841" transform="translate(-8.806 -0.938)" fill="none" stroke="#ff745c" stroke-miterlimit="10" stroke-width="3"/>
    <path id="Path_151" data-name="Path 151" d="M573.315,345.952H623.5a27.755,27.755,0,0,1,27.755,27.755v47.65A27.755,27.755,0,0,1,623.5,449.112H607.048l-12.773,15.72-10.316-15.72H562.1a27.764,27.764,0,0,1-27.128-21.864" transform="translate(-15.417 -3.968)" fill="none" stroke="#ff745c" stroke-miterlimit="10" stroke-width="3"/>
    <path id="Path_152" data-name="Path 152" d="M684.538,410.78l-14.167,17.437-5.6-8.539" transform="translate(-24.295 -8.402)" fill="none" stroke="#ff745c" stroke-miterlimit="10" stroke-width="3"/>
    <path id="Path_153" data-name="Path 153" d="M599.423,336.744V318.735a30.787,30.787,0,0,1,30.786-30.787h68.114a30.787,30.787,0,0,1,30.786,30.787v31.436" transform="translate(-19.826)" fill="none" stroke="#ff745c" stroke-miterlimit="10" stroke-width="3"/>
    <g id="Path_154" data-name="Path 154" transform="translate(-25.992 -5.266)" fill="none" stroke-miterlimit="10">
      <path d="M768.987,456.826H754.329l-11.378,14-9.188-14H714.291A24.723,24.723,0,0,1,689.568,432.1V389.658a24.723,24.723,0,0,1,24.723-24.723h54.7a24.723,24.723,0,0,1,24.723,24.723V432.1A24.723,24.723,0,0,1,768.987,456.826Z" stroke="none"/>
      <path d="M 743.2093505859375 465.7529602050781 L 752.0006103515625 454.9339904785156 L 752.9010620117188 453.8258666992188 L 754.328857421875 453.8258666992188 L 768.9874877929688 453.8258666992188 C 771.9214477539063 453.8258666992188 774.7660522460938 453.2518920898438 777.4421997070313 452.1199340820313 C 780.028564453125 451.0259704589844 782.3519897460938 449.4591979980469 784.347900390625 447.4631652832031 C 786.3438110351563 445.4671630859375 787.9105224609375 443.1436462402344 789.0044555664063 440.5571594238281 C 790.1363525390625 437.8808898925781 790.7102661132813 435.0362243652344 790.7102661132813 432.1022033691406 L 790.7102661132813 389.65771484375 C 790.7102661132813 386.7239379882813 790.1363525390625 383.8794860839844 789.0044555664063 381.203369140625 C 787.9105224609375 378.6170043945313 786.3438720703125 376.2935485839844 784.3479614257813 374.297607421875 C 782.3519897460938 372.3016052246094 780.0286254882813 370.73486328125 777.4421997070313 369.6408996582031 C 774.7659912109375 368.5089721679688 771.9214477539063 367.9349975585938 768.9874877929688 367.9349975585938 L 714.2907104492188 367.9349975585938 C 711.3567504882813 367.9349975585938 708.51220703125 368.5089721679688 705.8359985351563 369.6408996582031 C 703.2496337890625 370.73486328125 700.9262084960938 372.3016052246094 698.9302978515625 374.297607421875 C 696.9343872070313 376.2935485839844 695.36767578125 378.6170043945313 694.2738037109375 381.203369140625 C 693.1419067382813 383.8794860839844 692.5679931640625 386.7239379882813 692.5679931640625 389.65771484375 L 692.5679931640625 432.1022033691406 C 692.5679931640625 435.0362243652344 693.1419067382813 437.8808898925781 694.2738037109375 440.5571594238281 C 695.3677368164063 443.1436462402344 696.9343872070313 445.4671630859375 698.9302978515625 447.4631652832031 C 700.9262084960938 449.459228515625 703.2496337890625 451.0259704589844 705.8359985351563 452.1199340820313 C 708.5121459960938 453.2518920898438 711.3567504882813 453.8258666992188 714.2907104492188 453.8258666992188 L 733.762939453125 453.8258666992188 L 735.382568359375 453.8258666992188 L 736.2711181640625 455.179931640625 L 743.2093505859375 465.7529602050781 M 742.9512329101563 470.8277587890625 L 733.762939453125 456.8258666992188 L 714.2907104492188 456.8258666992188 C 700.63623046875 456.8258666992188 689.5679931640625 445.7566528320313 689.5679931640625 432.1022033691406 L 689.5679931640625 389.65771484375 C 689.5679931640625 376.0042419433594 700.63623046875 364.9349975585938 714.2907104492188 364.9349975585938 L 768.9874877929688 364.9349975585938 C 782.6419677734375 364.9349975585938 793.7102661132813 376.0042419433594 793.7102661132813 389.65771484375 L 793.7102661132813 432.1022033691406 C 793.7102661132813 445.7566528320313 782.6419677734375 456.8258666992188 768.9874877929688 456.8258666992188 L 754.328857421875 456.8258666992188 L 742.9512329101563 470.8277587890625 Z" stroke="none" fill="#ff745c"/>
    </g>
    <g id="Path_155" data-name="Path 155" transform="translate(-6.883 -6.853)" fill="none" stroke-miterlimit="10">
      <path d="M476.528,464.867h-12.24l-9.5,11.692-7.673-11.692h-16.26a20.644,20.644,0,0,1-20.644-20.644V408.781a20.644,20.644,0,0,1,20.644-20.644h45.673a20.644,20.644,0,0,1,20.644,20.644v35.442A20.644,20.644,0,0,1,476.528,464.867Z" stroke="none"/>
      <path d="M 455.0449523925781 471.4845581054688 L 461.9590148925781 462.9752197265625 L 462.8594360351563 461.8670349121094 L 464.2873229980469 461.8670349121094 L 476.527587890625 461.8670349121094 C 481.2406616210938 461.8670349121094 485.6715698242188 460.0317687988281 489.0040283203125 456.6993103027344 C 492.3364868164063 453.3668518066406 494.1717529296875 448.9359436035156 494.1717529296875 444.2228393554688 L 494.1717529296875 408.7811889648438 C 494.1717529296875 404.0680847167969 492.3364868164063 399.63720703125 489.0040283203125 396.3047180175781 C 485.6715698242188 392.9722595214844 481.2406616210938 391.1369934082031 476.527587890625 391.1369934082031 L 430.8541564941406 391.1369934082031 C 426.1413879394531 391.1369934082031 421.7106323242188 392.9722595214844 418.3780517578125 396.3047485351563 C 415.0453796386719 399.6373291015625 413.2099914550781 404.0682067871094 413.2099914550781 408.7811889648438 L 413.2099914550781 444.2228393554688 C 413.2099914550781 448.9358215332031 415.0453796386719 453.36669921875 418.3780517578125 456.6992797851563 C 421.7106323242188 460.0317687988281 426.1413879394531 461.8670349121094 430.8541564941406 461.8670349121094 L 447.1142578125 461.8670349121094 L 448.73388671875 461.8670349121094 L 449.6224670410156 463.2211303710938 L 455.0449523925781 471.4845581054688 M 454.7868957519531 476.5595092773438 L 447.1142578125 464.8670349121094 L 430.8541564941406 464.8670349121094 C 419.4532775878906 464.8670349121094 410.2099914550781 455.6246643066406 410.2099914550781 444.2228393554688 L 410.2099914550781 408.7811889648438 C 410.2099914550781 397.3793640136719 419.4532775878906 388.1369934082031 430.8541564941406 388.1369934082031 L 476.527587890625 388.1369934082031 C 487.9293823242188 388.1369934082031 497.1717529296875 397.3793640136719 497.1717529296875 408.7811889648438 L 497.1717529296875 444.2228393554688 C 497.1717529296875 455.6246643066406 487.9293823242188 464.8670349121094 476.527587890625 464.8670349121094 L 464.2873229980469 464.8670349121094 L 454.7868957519531 476.5595092773438 Z" stroke="none" fill="#ff745c"/>
    </g>
    <g id="Group_228" data-name="Group 228" transform="translate(465.382 338.254)">
      <g id="Rectangle_83" data-name="Rectangle 83" fill="none" stroke="#ff745c" stroke-miterlimit="10" stroke-width="3">
        <rect width="50.106" height="5.349" rx="2.675" stroke="none"/>
        <rect x="1.5" y="1.5" width="47.106" height="2.349" rx="1.175" fill="none"/>
      </g>
      <g id="Rectangle_84" data-name="Rectangle 84" transform="translate(0 14.512)" fill="none" stroke="#ff745c" stroke-miterlimit="10" stroke-width="3">
        <rect width="40.282" height="5.349" rx="2.675" stroke="none"/>
        <rect x="1.5" y="1.5" width="37.282" height="2.349" rx="1.175" fill="none"/>
      </g>
      <g id="Rectangle_85" data-name="Rectangle 85" transform="translate(0 29.82)" fill="none" stroke="#ff745c" stroke-miterlimit="10" stroke-width="3">
        <rect width="50.106" height="5.349" rx="2.675" stroke="none"/>
        <rect x="1.5" y="1.5" width="47.106" height="2.349" rx="1.175" fill="none"/>
      </g>
    </g>
    <g id="Group_229" data-name="Group 229" transform="translate(428.141 415.67)">
      <g id="Ellipse_9" data-name="Ellipse 9" fill="none" stroke="#ff745c" stroke-miterlimit="10" stroke-width="3">
        <circle cx="3.93" cy="3.93" r="3.93" stroke="none"/>
        <circle cx="3.93" cy="3.93" r="2.43" fill="none"/>
      </g>
      <g id="Ellipse_10" data-name="Ellipse 10" transform="translate(14.737)" fill="none" stroke="#ff745c" stroke-miterlimit="10" stroke-width="3">
        <circle cx="3.93" cy="3.93" r="3.93" stroke="none"/>
        <circle cx="3.93" cy="3.93" r="2.43" fill="none"/>
      </g>
      <g id="Ellipse_11" data-name="Ellipse 11" transform="translate(29.474)" fill="none" stroke="#ff745c" stroke-miterlimit="10" stroke-width="3">
        <circle cx="3.93" cy="3.93" r="3.93" stroke="none"/>
        <circle cx="3.93" cy="3.93" r="2.43" fill="none"/>
      </g>
    </g>
    <g id="Group_230" data-name="Group 230" transform="translate(570.623 370.409)">
      <g id="Path_156" data-name="Path 156" transform="translate(-589.79 -376.464)" fill="none" stroke-miterlimit="10">
        <path d="M591.745,430.258a6.463,6.463,0,0,1,0-9.262,7.15,7.15,0,0,1,9.613,0,6.464,6.464,0,0,1,0,9.262,7.153,7.153,0,0,1-9.613,0Zm-1.725-49.964a3.473,3.473,0,0,1,3.83-3.83h5.4a3.473,3.473,0,0,1,3.83,3.83l-1.965,30.678a3.473,3.473,0,0,1-3.83,3.83h-1.475a3.473,3.473,0,0,1-3.83-3.83Z" stroke="none"/>
        <path d="M 596.550537109375 429.1138916015625 C 597.68017578125 429.1138916015625 598.5511474609375 428.7863464355469 599.29150390625 428.0830993652344 C 599.9973754882813 427.4125671386719 600.3121337890625 426.6551208496094 600.3121337890625 425.6271667480469 C 600.3121337890625 424.5997009277344 599.9971313476563 423.842041015625 599.29150390625 423.1712646484375 C 598.5504760742188 422.4673767089844 597.6795654296875 422.1395263671875 596.550537109375 422.1395263671875 C 595.4223022460938 422.1395263671875 594.5516967773438 422.4673767089844 593.8106689453125 423.1712341308594 C 593.104736328125 423.8418579101563 592.7899169921875 424.5993041992188 592.7899169921875 425.6271667480469 C 592.7899169921875 426.655517578125 593.1044921875 427.4127197265625 593.8106689453125 428.0830688476563 C 594.551025390625 428.7863464355469 595.421630859375 429.1138916015625 596.550537109375 429.1138916015625 M 597.2884521484375 411.802001953125 C 597.7763671875 411.802001953125 597.976806640625 411.7072143554688 598.0000610351563 411.6839294433594 C 598.0235595703125 411.6604919433594 598.1182861328125 411.4601135253906 598.1182861328125 410.9722290039063 L 598.1182861328125 410.8762512207031 L 598.1243896484375 410.7804870605469 L 600.0820922851563 380.2119445800781 C 600.0724487304688 379.7832946777344 599.9880981445313 379.6053161621094 599.9650268554688 379.5823059082031 C 599.9415283203125 379.5588073730469 599.7410888671875 379.4639892578125 599.253173828125 379.4639892578125 L 593.8489990234375 379.4639892578125 C 593.361083984375 379.4639892578125 593.1607666015625 379.5586547851563 593.1373901367188 379.5820922851563 C 593.1152954101563 379.6041870117188 593.0299072265625 379.7833557128906 593.0200805664063 380.2120971679688 L 594.977783203125 410.7804870605469 L 594.98388671875 410.8762512207031 L 594.98388671875 410.9722290039063 C 594.98388671875 411.4601135253906 595.07861328125 411.6604919433594 595.1021118164063 411.6839294433594 C 595.12548828125 411.7073669433594 595.3257446289063 411.802001953125 595.813720703125 411.802001953125 L 597.2884521484375 411.802001953125 M 596.550537109375 432.1138916015625 C 594.649169921875 432.1138916015625 593.046875 431.4953002929688 591.7445068359375 430.2581481933594 C 590.441162109375 429.0209655761719 589.7899169921875 427.477294921875 589.7899169921875 425.6271667480469 C 589.7899169921875 423.7779541015625 590.441162109375 422.2342834472656 591.7445068359375 420.9961853027344 C 593.046875 419.759033203125 594.649169921875 419.1395263671875 596.550537109375 419.1395263671875 C 598.452880859375 419.1395263671875 600.0552978515625 419.759033203125 601.357666015625 420.9961853027344 C 602.6600341796875 422.2342834472656 603.3121337890625 423.7779541015625 603.3121337890625 425.6271667480469 C 603.3121337890625 427.477294921875 602.6600341796875 429.0209655761719 601.357666015625 430.2581481933594 C 600.0552978515625 431.4953002929688 598.452880859375 432.1138916015625 596.550537109375 432.1138916015625 Z M 597.2884521484375 414.802001953125 L 595.813720703125 414.802001953125 C 594.588623046875 414.802001953125 593.6448974609375 414.4694213867188 592.980712890625 413.8052062988281 C 592.3165283203125 413.1409912109375 591.98388671875 412.1963500976563 591.98388671875 410.9722290039063 L 590.0191650390625 380.2937927246094 C 590.0191650390625 379.0696716308594 590.351806640625 378.1250305175781 591.0159912109375 377.4608154296875 C 591.68017578125 376.7966003417969 592.6239013671875 376.4639892578125 593.8489990234375 376.4639892578125 L 599.253173828125 376.4639892578125 C 600.477294921875 376.4639892578125 601.421875 376.7966003417969 602.086181640625 377.4608154296875 C 602.7513427734375 378.1250305175781 603.0830078125 379.0696716308594 603.0830078125 380.2937927246094 L 601.1182861328125 410.9722290039063 C 601.1182861328125 412.1963500976563 600.78564453125 413.1409912109375 600.1214599609375 413.8052062988281 C 599.4571533203125 414.4694213867188 598.5125732421875 414.802001953125 597.2884521484375 414.802001953125 Z" stroke="none" fill="#ff745c"/>
      </g>
    </g>
    <g id="Group_231" data-name="Group 231" transform="translate(701.577 378.698)">
      <g id="Path_157" data-name="Path 157" transform="translate(-730.359 -385.361)" fill="none" stroke-miterlimit="10">
        <path d="M740.366,423.006v-7.014q0-3.693,4.026-4.192a15.817,15.817,0,0,0,8.28-3.175,7.541,7.541,0,0,0,2.926-5.957,6.005,6.005,0,0,0-2.7-5.043,11.682,11.682,0,0,0-7.056-1.971,15.6,15.6,0,0,0-7.8,2.324q-3.527,2.077-5.6-1.038l-1.2-1.826a4.316,4.316,0,0,1-.83-3.134,3.641,3.641,0,0,1,1.867-2.511,27.175,27.175,0,0,1,14.734-4.109,24.487,24.487,0,0,1,8.385,1.411,19.445,19.445,0,0,1,6.516,3.777,17.529,17.529,0,0,1,4.109,5.5,15.1,15.1,0,0,1,1.493,6.578,15.3,15.3,0,0,1-4.15,10.542,20.668,20.668,0,0,1-11.206,6.185v3.652a3.688,3.688,0,0,1-4.067,4.067h-3.653a3.688,3.688,0,0,1-4.067-4.067Zm.789,20.483a6.865,6.865,0,0,1,0-9.837,7.594,7.594,0,0,1,10.21,0,6.867,6.867,0,0,1,0,9.837,7.6,7.6,0,0,1-10.21,0Z" stroke="none"/>
        <path d="M 746.2603759765625 442.4601745605469 C 747.5094604492188 442.4601745605469 748.4755249023438 442.0955505371094 749.2984008789063 441.3147277832031 C 750.0880737304688 440.5639343261719 750.4402465820313 439.7174377441406 750.4402465820313 438.570068359375 C 750.4402465820313 437.4233703613281 750.0880737304688 436.5771789550781 749.2998046875 435.8276672363281 C 748.4752197265625 435.044677734375 747.5093994140625 434.6799926757813 746.2603759765625 434.6799926757813 C 745.0108032226563 434.6799926757813 744.0452270507813 435.0444641113281 743.220947265625 435.8276977539063 C 742.4315795898438 436.5772094726563 742.07958984375 437.4229736328125 742.07958984375 438.570068359375 C 742.07958984375 439.7178344726563 742.4315795898438 440.5639038085938 743.2208862304688 441.3133544921875 C 744.044921875 442.0957641601563 745.0107421875 442.4601745605469 746.2603759765625 442.4601745605469 M 748.0863037109375 424.0732421875 C 748.6089477539063 424.0732421875 748.89111328125 423.9765319824219 748.9754638671875 423.8921813964844 C 749.0576782226563 423.8100891113281 749.1536865234375 423.5287170410156 749.1536865234375 423.0058898925781 L 749.1536865234375 419.3540344238281 L 749.1536865234375 416.9507751464844 L 751.4990234375 416.4263305664063 C 753.5618896484375 415.965087890625 755.4239501953125 415.28076171875 757.033447265625 414.3924560546875 C 758.5994262695313 413.5281677246094 759.97802734375 412.4410400390625 761.1309204101563 411.1612548828125 C 763.4047241210938 408.6370544433594 764.5100708007813 405.8455505371094 764.5100708007813 402.627197265625 C 764.5100708007813 400.7649841308594 764.1171264648438 399.0356750488281 763.3086547851563 397.3399353027344 C 762.4873046875 395.6165771484375 761.338623046875 394.0802001953125 759.8952026367188 392.7740783691406 C 758.4498291015625 391.4668884277344 756.5911865234375 390.396728515625 754.372314453125 389.5937805175781 C 752.1087646484375 388.7757568359375 749.6305541992188 388.3609924316406 747.006591796875 388.3609924316406 C 744.5665283203125 388.3609924316406 742.2230224609375 388.6694946289063 740.0411987304688 389.2779235839844 C 737.8744506835938 389.8821716308594 735.796630859375 390.8021545410156 733.8655395507813 392.0123596191406 L 733.85595703125 392.0183410644531 L 733.8463134765625 392.0242919921875 C 733.5750122070313 392.1914978027344 733.3818969726563 392.3694152832031 733.365966796875 392.4664611816406 C 733.3160400390625 392.7708435058594 733.573486328125 393.2134399414063 733.7313842773438 393.4501647949219 L 733.7362060546875 393.4573669433594 L 733.740966796875 393.464599609375 L 734.9390869140625 395.2835998535156 C 735.2379760742188 395.7300720214844 735.4219360351563 395.8068542480469 735.4230346679688 395.8072509765625 C 735.4231567382813 395.8072509765625 735.4315795898438 395.8090515136719 735.4520263671875 395.8090515136719 C 735.512451171875 395.8090515136719 735.8477783203125 395.7890014648438 736.5198364257813 395.393310546875 L 736.5309448242188 395.3868103027344 L 736.5420532226563 395.3803405761719 C 739.6758422851563 393.5714111328125 742.8057861328125 392.6542053222656 745.8449096679688 392.6542053222656 C 749.3849487304688 392.6542053222656 752.3541259765625 393.5116271972656 754.67138671875 395.2036743164063 C 757.24072265625 397.0820922851563 758.5987548828125 399.6632995605469 758.5987548828125 402.668212890625 C 758.5987548828125 405.8616027832031 757.218505859375 408.7142028808594 754.6072998046875 410.9176025390625 C 752.2200927734375 412.9320068359375 748.915283203125 414.2294921875 744.7846069335938 414.7739868164063 L 744.7724609375 414.7755737304688 L 744.7603149414063 414.7770690917969 C 743.8510131835938 414.889404296875 743.5813598632813 415.1279296875 743.5365600585938 415.1746215820313 C 743.4315185546875 415.2840576171875 743.3662109375 415.5972290039063 743.3662109375 415.9919128417969 L 743.3662109375 423.0058898925781 C 743.3662109375 423.5285949707031 743.462890625 423.8107299804688 743.5458374023438 423.8936157226563 C 743.628662109375 423.9765014648438 743.910888671875 424.0732421875 744.4335327148438 424.0732421875 L 748.0863037109375 424.0732421875 M 746.2603759765625 445.4601745605469 C 744.23974609375 445.4601745605469 742.5386352539063 444.8024597167969 741.1552124023438 443.4888916015625 C 739.7708740234375 442.1744384765625 739.07958984375 440.5357666015625 739.07958984375 438.570068359375 C 739.07958984375 436.6062622070313 739.7708740234375 434.9666748046875 741.1552124023438 433.6521911621094 C 742.5386352539063 432.3376770019531 744.23974609375 431.6799926757813 746.2603759765625 431.6799926757813 C 748.2791137695313 431.6799926757813 749.981201171875 432.3376770019531 751.3655395507813 433.6521911621094 C 752.748046875 434.9666748046875 753.4402465820313 436.6062622070313 753.4402465820313 438.570068359375 C 753.4402465820313 440.5357666015625 752.748046875 442.1744384765625 751.3655395507813 443.4888916015625 C 749.981201171875 444.8024597167969 748.2791137695313 445.4601745605469 746.2603759765625 445.4601745605469 Z M 748.0863037109375 427.0732421875 L 744.4335327148438 427.0732421875 C 743.1329956054688 427.0732421875 742.1296997070313 426.7201538085938 741.4244995117188 426.0149536132813 C 740.71923828125 425.3097534179688 740.3662109375 424.3073425292969 740.3662109375 423.0058898925781 L 740.3662109375 415.9919128417969 C 740.3662109375 413.5296936035156 741.7077026367188 412.13134765625 744.3925170898438 411.7997131347656 C 747.9614868164063 411.3292541503906 750.7218017578125 410.2709655761719 752.6725463867188 408.6248474121094 C 754.6233520507813 406.9786987304688 755.5987548828125 404.9925231933594 755.5987548828125 402.668212890625 C 755.5987548828125 400.6214904785156 754.6987915039063 398.9399719238281 752.9008178710938 397.6254577636719 C 751.1019287109375 396.3119201660156 748.7505493164063 395.6542053222656 745.8449096679688 395.6542053222656 C 743.3267822265625 395.6542053222656 740.7257690429688 396.4292907714844 738.0418701171875 397.9785461425781 C 737.1014404296875 398.5322265625 736.238037109375 398.8090209960938 735.4521484375 398.8090515136719 C 734.273193359375 398.80908203125 733.2684326171875 398.1861877441406 732.4382934570313 396.9407348632813 L 731.235595703125 395.1148071289063 C 730.5154418945313 394.0350952148438 730.23974609375 392.99169921875 730.405517578125 391.9809265136719 C 730.5713500976563 390.9710693359375 731.194580078125 390.1344909667969 732.2724609375 389.4702758789063 C 736.6444702148438 386.7304382324219 741.5567626953125 385.3609924316406 747.006591796875 385.3609924316406 C 749.99609375 385.3609924316406 752.7908935546875 385.8323974609375 755.3919067382813 386.7723693847656 C 757.9920043945313 387.7132568359375 760.1635131835938 388.9718627929688 761.907470703125 390.5490417480469 C 763.6504516601563 392.1262512207031 765.0208740234375 393.9596252441406 766.0167846679688 396.0492248535156 C 767.0126342773438 398.1378479003906 767.5100708007813 400.330810546875 767.5100708007813 402.627197265625 C 767.5100708007813 406.5846557617188 766.126708984375 410.0976867675781 763.35986328125 413.1691589355469 C 760.593017578125 416.2406311035156 756.8572998046875 418.3022766113281 752.1536865234375 419.3540344238281 L 752.1536865234375 423.0058898925781 C 752.1536865234375 424.3073425292969 751.801513671875 425.3097534179688 751.0953369140625 426.0149536132813 C 750.3901977539063 426.7201538085938 749.3868408203125 427.0732421875 748.0863037109375 427.0732421875 Z" stroke="none" fill="#ff745c"/>
      </g>
    </g>
    <path id="Path_158" data-name="Path 158" d="M636.829,339.123a4.239,4.239,0,0,1,3.643-4.235l15.577-2.264,6.966-14.116a4.249,4.249,0,0,1,7.62,0l6.966,14.116,15.577,2.264a4.249,4.249,0,0,1,2.355,7.247l-11.271,10.987,2.661,15.515a4.249,4.249,0,0,1-6.165,4.479l-13.932-7.325-3.4,1.786" transform="translate(-22.384 -1.928)" fill="none" stroke="#ff745c" stroke-miterlimit="10" stroke-width="3"/>
    <path id="Path_159" data-name="Path 159" d="M841.048,607.305a18.768,18.768,0,0,1-5.53,3.4,36.706,36.706,0,0,1-8.022,2.233,61.307,61.307,0,0,1-10.212.8H336.507a61.18,61.18,0,0,1-10.21-.8,36.687,36.687,0,0,1-8.018-2.232,18.787,18.787,0,0,1-5.528-3.4,9.672,9.672,0,0,1-2.807-4.3l3.3,11.079q1.61,5.406,3.219,10.813a10.305,10.305,0,0,0,2.814,4.447,18.584,18.584,0,0,0,5.451,3.518,34.7,34.7,0,0,0,7.859,2.307,56.674,56.674,0,0,0,9.971.825H811.236a56.706,56.706,0,0,0,9.974-.825,34.768,34.768,0,0,0,7.862-2.308,18.615,18.615,0,0,0,5.453-3.519,10.3,10.3,0,0,0,2.815-4.448L843.857,603A9.668,9.668,0,0,1,841.048,607.305Z" transform="translate(-0.024 -21.551)" fill="#8f8f8f"/>
    <path id="Path_160" data-name="Path 160" d="M841.434,586.222c1.995,2.635,2.865,5.183,2.712,7.533a9.2,9.2,0,0,1-3.507,6.392,23.5,23.5,0,0,1-9.222,4.437,55.144,55.144,0,0,1-14.157,1.655H336.482a55.136,55.136,0,0,1-14.156-1.655,23.48,23.48,0,0,1-9.217-4.437,9.2,9.2,0,0,1-3.5-6.392c-.153-2.35.718-4.9,2.713-7.533l62.151-82.146a16.942,16.942,0,0,1,5.464-4.3,45.255,45.255,0,0,1,8.513-3.409,73.063,73.063,0,0,1,10.4-2.25,79.752,79.752,0,0,1,11.268-.815H743.63a79.789,79.789,0,0,1,11.27.815,73.158,73.158,0,0,1,10.4,2.25,45.3,45.3,0,0,1,8.515,3.409,16.946,16.946,0,0,1,5.465,4.3Z" transform="translate(0 -14.047)" fill="#ebebeb"/>
    <path id="Path_161" data-name="Path 161" d="M841.434,586.222c1.995,2.635,2.865,5.183,2.712,7.533a9.2,9.2,0,0,1-3.507,6.392,23.5,23.5,0,0,1-9.222,4.437,55.144,55.144,0,0,1-14.157,1.655H336.482a55.136,55.136,0,0,1-14.156-1.655,23.48,23.48,0,0,1-9.217-4.437,9.2,9.2,0,0,1-3.5-6.392c-.153-2.35.718-4.9,2.713-7.533l62.151-82.146a16.942,16.942,0,0,1,5.464-4.3,45.255,45.255,0,0,1,8.513-3.409,73.063,73.063,0,0,1,10.4-2.25,79.752,79.752,0,0,1,11.268-.815H743.63a79.789,79.789,0,0,1,11.27.815,73.158,73.158,0,0,1,10.4,2.25,45.3,45.3,0,0,1,8.515,3.409,16.946,16.946,0,0,1,5.465,4.3Z" transform="translate(0 -14.047)" fill="none"/>
    <path id="Path_162" data-name="Path 162" d="M500.218,535.025c1.116-.416,2.295-.79,3.523-1.118s2.5-.606,3.819-.834,2.666-.4,4.045-.522,2.785-.181,4.208-.181l23.14-.153,3.348-2.1a3.084,3.084,0,0,1,.9-.36,4.968,4.968,0,0,1,1.069-.136,4.776,4.776,0,0,1,1.059.092,2.7,2.7,0,0,1,.87.325l3.542,2.182,6.219.153a44.284,44.284,0,0,1,8.752.841,30.066,30.066,0,0,1,7.117,2.32,14.8,14.8,0,0,1,4.815,3.506,6.57,6.57,0,0,1,1.738,4.4l-.506,29.011a8.907,8.907,0,0,1-2.139,5.42,18.672,18.672,0,0,1-5.755,4.555,34.647,34.647,0,0,1-8.58,3.139,46.612,46.612,0,0,1-10.466,1.165h-47.38a41.843,41.843,0,0,1-10.092-1.165,25.138,25.138,0,0,1-7.582-3.139,11.734,11.734,0,0,1-4.31-4.555,7.306,7.306,0,0,1-.417-5.42l8.718-29.011a7.218,7.218,0,0,1,.552-1.323,9.044,9.044,0,0,1,.832-1.269,11.71,11.71,0,0,1,1.089-1.206,15.032,15.032,0,0,1,1.323-1.137l-20.758-10.551a2.473,2.473,0,0,1-.5-.329,1.4,1.4,0,0,1-.308-.371.948.948,0,0,1-.119-.4.966.966,0,0,1,.064-.411,1.471,1.471,0,0,1,.211-.368,2.337,2.337,0,0,1,.35-.358,3.718,3.718,0,0,1,.488-.339,5.549,5.549,0,0,1,.623-.309,8.109,8.109,0,0,1,1.584-.471,9.934,9.934,0,0,1,1.7-.179,8.453,8.453,0,0,1,1.616.115,4.952,4.952,0,0,1,1.341.415l20.264,10.072m285.3,61.755-54.287-98.336-227.706.142h-45.89l-46.348,98.371Z" transform="translate(-6.957 -14.399)" fill="#ff745c"/>
    <path id="Path_163" data-name="Path 163" d="M503.325,498.547l227.706-.142,54.1,98.254-.459,0,.141.256H411.087l46.348-98.371h45.89M787.7,598.178l-.7-1.26-54.631-98.371-.373-.67H456.16l-.32.67-46.935,98.371-.6,1.26H787.7" transform="translate(-6.753 -14.36)" fill="#595959"/>
    <path id="Path_164" data-name="Path 164" d="M380.974,542.589a9.282,9.282,0,0,1,2.8-2.728,21.142,21.142,0,0,1,4.406-2.192,31.842,31.842,0,0,1,5.412-1.459,33.338,33.338,0,0,1,5.861-.532,24.183,24.183,0,0,1,5.267.532,11.965,11.965,0,0,1,3.772,1.459,4.547,4.547,0,0,1,1.941,2.192,3.328,3.328,0,0,1-.267,2.728,8.31,8.31,0,0,1-2.586,2.778,19.853,19.853,0,0,1-4.373,2.3,31.264,31.264,0,0,1-5.569,1.573,33.436,33.436,0,0,1-6.131.58,23.859,23.859,0,0,1-5.476-.58,11.255,11.255,0,0,1-3.8-1.573,4.176,4.176,0,0,1-1.785-2.3,3.537,3.537,0,0,1,.534-2.778m32.267,0a3.989,3.989,0,0,0,.285-3.292,5.579,5.579,0,0,0-2.375-2.641,14.589,14.589,0,0,0-4.563-1.756,29.154,29.154,0,0,0-6.34-.64,40.172,40.172,0,0,0-7.058.64,38.662,38.662,0,0,0-6.534,1.756,25.857,25.857,0,0,0-5.339,2.641,11.393,11.393,0,0,0-3.413,3.292,4.309,4.309,0,0,0-.676,3.365,5.032,5.032,0,0,0,2.141,2.806,13.521,13.521,0,0,0,4.6,1.922,28.731,28.731,0,0,0,6.65.712,40.355,40.355,0,0,0,7.45-.712,37.874,37.874,0,0,0,6.768-1.922,24.045,24.045,0,0,0,5.3-2.806,9.915,9.915,0,0,0,3.1-3.365" transform="translate(-4.619 -16.849)" fill="gray"/>
    <g id="Group_232" data-name="Group 232" transform="translate(762.709 509.854)">
      <path id="Path_165" data-name="Path 165" d="M821.377,558.82l-14.668-23.7a1.665,1.665,0,0,0-.5-.483,3.914,3.914,0,0,0-.8-.392,5.854,5.854,0,0,0-.994-.264,6.177,6.177,0,0,0-1.076-.1,4.365,4.365,0,0,0-.959.1,2.029,2.029,0,0,0-.672.264.738.738,0,0,0-.324.392.594.594,0,0,0,.084.483l14.257,23.7a1.945,1.945,0,0,0,.561.563,4.268,4.268,0,0,0,.886.461,6.416,6.416,0,0,0,2.267.426,4.321,4.321,0,0,0,1.037-.115,2,2,0,0,0,.711-.311.787.787,0,0,0,.323-.461.759.759,0,0,0-.126-.563" transform="translate(-796.348 -526.677)" fill="gray"/>
      <path id="Path_166" data-name="Path 166" d="M801.951,527.5a1.821,1.821,0,0,0-.556-.526,4.3,4.3,0,0,0-.891-.428,6.629,6.629,0,0,0-1.1-.289,7.019,7.019,0,0,0-1.2-.105,5.033,5.033,0,0,0-1.073.105,2.362,2.362,0,0,0-.756.289.827.827,0,0,0-.37.428.63.63,0,0,0,.086.526,1.744,1.744,0,0,0,.546.526,4.25,4.25,0,0,0,.89.431,6.674,6.674,0,0,0,1.111.292,7.1,7.1,0,0,0,1.213.107,4.993,4.993,0,0,0,1.077-.107,2.336,2.336,0,0,0,.755-.292.808.808,0,0,0,.362-.431.636.636,0,0,0-.094-.526" transform="translate(-795.98 -526.148)" fill="gray"/>
    </g>
    <path id="Path_167" data-name="Path 167" d="M504.674,536.932,484.41,526.86a4.952,4.952,0,0,0-1.341-.415,8.453,8.453,0,0,0-1.616-.115,9.935,9.935,0,0,0-1.7.179,8.11,8.11,0,0,0-1.584.471,5.552,5.552,0,0,0-.623.309,3.717,3.717,0,0,0-.488.339,2.337,2.337,0,0,0-.35.358,1.471,1.471,0,0,0-.211.368.966.966,0,0,0-.064.411.948.948,0,0,0,.119.4,1.4,1.4,0,0,0,.308.371,2.473,2.473,0,0,0,.5.329l20.758,10.551q.658-.506,1.406-.979t1.571-.91q.823-.436,1.721-.836t1.855-.757" transform="translate(-11.413 -16.306)" fill="#ff8c78"/>
    <path id="Path_168" data-name="Path 168" d="M667.613,535.8l-4.162-18.5a.2.2,0,0,0-.073-.106.566.566,0,0,0-.152-.088,1.054,1.054,0,0,0-.211-.059,1.394,1.394,0,0,0-.247-.021,1.205,1.205,0,0,0-.234.021.725.725,0,0,0-.182.059.312.312,0,0,0-.113.088.13.13,0,0,0-.024.106l4.081,18.5a.245.245,0,0,0,.078.121.592.592,0,0,0,.163.1,1.1,1.1,0,0,0,.223.067,1.376,1.376,0,0,0,.259.024,1.246,1.246,0,0,0,.253-.024.778.778,0,0,0,.2-.067.311.311,0,0,0,.118-.1.152.152,0,0,0,.025-.121m11.462-4.263-3.792-14.24a.218.218,0,0,0-.077-.106.6.6,0,0,0-.155-.088,1.09,1.09,0,0,0-.211-.059,1.369,1.369,0,0,0-.244-.021,1.228,1.228,0,0,0-.237.021.7.7,0,0,0-.182.059.3.3,0,0,0-.11.088.128.128,0,0,0-.021.106l3.731,14.24a.243.243,0,0,0,.082.117.608.608,0,0,0,.164.1,1.132,1.132,0,0,0,.224.065,1.487,1.487,0,0,0,.262.024,1.232,1.232,0,0,0,.244-.024.709.709,0,0,0,.187-.065.286.286,0,0,0,.113-.1.142.142,0,0,0,.02-.117m13.081,4.263L686.5,517.3a.234.234,0,0,0-.081-.106.664.664,0,0,0-.158-.088,1.12,1.12,0,0,0-.213-.059,1.378,1.378,0,0,0-.244-.021,1.222,1.222,0,0,0-.237.021.679.679,0,0,0-.179.059.277.277,0,0,0-.106.088.123.123,0,0,0-.017.106l5.574,18.5a.264.264,0,0,0,.089.121.646.646,0,0,0,.171.1,1.2,1.2,0,0,0,.23.067,1.446,1.446,0,0,0,.266.024,1.182,1.182,0,0,0,.247-.024.687.687,0,0,0,.187-.067.284.284,0,0,0,.111-.1.148.148,0,0,0,.014-.121m-31.642-18.5a.494.494,0,0,1,.094-.4,1.153,1.153,0,0,1,.425-.328,2.759,2.759,0,0,1,.686-.221,4.585,4.585,0,0,1,.88-.081,5.2,5.2,0,0,1,.919.081,4.043,4.043,0,0,1,.786.221,2.113,2.113,0,0,1,.573.328.782.782,0,0,1,.277.4l4.271,18.5a.574.574,0,0,1-.089.459,1.2,1.2,0,0,1-.446.376,2.756,2.756,0,0,1-.73.254,4.558,4.558,0,0,1-.945.094,5.156,5.156,0,0,1-.985-.094,4.068,4.068,0,0,1-.842-.254,2.225,2.225,0,0,1-.61-.376.9.9,0,0,1-.292-.459l-3.971-18.5m11.832,0a.476.476,0,0,1,.079-.4,1.094,1.094,0,0,1,.413-.328,2.712,2.712,0,0,1,.68-.221,4.551,4.551,0,0,1,.878-.081,5.234,5.234,0,0,1,.92.081,4.161,4.161,0,0,1,.794.221,2.23,2.23,0,0,1,.583.328.824.824,0,0,1,.292.4l3.877,14.24a.545.545,0,0,1-.07.445,1.108,1.108,0,0,1-.423.364,2.673,2.673,0,0,1-.709.247,4.568,4.568,0,0,1-.927.09,5.327,5.327,0,0,1-.975-.09,4.265,4.265,0,0,1-.842-.247,2.333,2.333,0,0,1-.619-.364.916.916,0,0,1-.307-.445l-3.645-14.24m11.219,0a.466.466,0,0,1,.062-.4,1.021,1.021,0,0,1,.4-.328,2.6,2.6,0,0,1,.671-.221,4.529,4.529,0,0,1,.878-.081,5.294,5.294,0,0,1,.924.081,4.271,4.271,0,0,1,.8.221,2.34,2.34,0,0,1,.6.328.872.872,0,0,1,.307.4l5.764,18.5a.561.561,0,0,1-.051.459,1.054,1.054,0,0,1-.412.376,2.554,2.554,0,0,1-.708.254,4.421,4.421,0,0,1-.935.094,5.325,5.325,0,0,1-1-.094,4.363,4.363,0,0,1-.865-.254,2.469,2.469,0,0,1-.642-.376,1,1,0,0,1-.33-.459l-5.463-18.5m41.813,22.977-9.771-23.908a9.032,9.032,0,0,0-3.155-3.664,23.563,23.563,0,0,0-5.652-2.923,41.046,41.046,0,0,0-7.339-1.937,49.326,49.326,0,0,0-8.3-.7H654.45a42.948,42.948,0,0,0-7.932.7,26.88,26.88,0,0,0-6.3,1.937,11.66,11.66,0,0,0-4.089,2.923,4.721,4.721,0,0,0-1.2,3.664l3,23.908a7.766,7.766,0,0,0,2.4,4.423,19.278,19.278,0,0,0,5.581,3.708,36.7,36.7,0,0,0,7.993,2.55,47.9,47.9,0,0,0,9.521.945l24.617.173,3.945,2.415a3.755,3.755,0,0,0,1.034.42,5.229,5.229,0,0,0,1.18.159,4.518,4.518,0,0,0,1.127-.108,2.321,2.321,0,0,0,.872-.379l3.316-2.507,6.574-.173a40.656,40.656,0,0,0,9.011-.945,22.286,22.286,0,0,0,6.632-2.55,8.961,8.961,0,0,0,3.6-3.708,5.379,5.379,0,0,0,.039-4.423" transform="translate(-22.252 -14.994)" fill="#fff"/>
    <path id="Path_169" data-name="Path 169" d="M522.252,569.519l4.451-22.456a.171.171,0,0,0-.028-.129.336.336,0,0,0-.124-.105.765.765,0,0,0-.2-.071,1.2,1.2,0,0,0-.255-.026,1.41,1.41,0,0,0-.272.026,1.123,1.123,0,0,0-.231.071.6.6,0,0,0-.167.105.249.249,0,0,0-.079.129L520.8,569.519a.2.2,0,0,0,.027.147.371.371,0,0,0,.131.121.791.791,0,0,0,.216.082,1.236,1.236,0,0,0,.279.031,1.363,1.363,0,0,0,.287-.031,1.118,1.118,0,0,0,.246-.082.646.646,0,0,0,.18-.121.292.292,0,0,0,.086-.147m14.74-5.2,2.705-17.252a.17.17,0,0,0-.033-.129.353.353,0,0,0-.129-.105.786.786,0,0,0-.2-.071,1.218,1.218,0,0,0-.257-.026,1.35,1.35,0,0,0-.266.026,1.071,1.071,0,0,0-.225.071.543.543,0,0,0-.161.105.233.233,0,0,0-.075.129l-2.779,17.252a.2.2,0,0,0,.033.145.386.386,0,0,0,.134.119.784.784,0,0,0,.213.079,1.175,1.175,0,0,0,.271.03,1.311,1.311,0,0,0,.281-.03,1.07,1.07,0,0,0,.238-.079.612.612,0,0,0,.171-.119.267.267,0,0,0,.079-.145m12.386,5.2,2.64-22.456a.174.174,0,0,0-.038-.129.369.369,0,0,0-.132-.105.809.809,0,0,0-.206-.071,1.233,1.233,0,0,0-.258-.026,1.35,1.35,0,0,0-.266.026,1.054,1.054,0,0,0-.225.071.538.538,0,0,0-.16.105.22.22,0,0,0-.07.129l-2.738,22.456a.2.2,0,0,0,.041.147.417.417,0,0,0,.143.121.865.865,0,0,0,.223.082,1.246,1.246,0,0,0,.279.031,1.324,1.324,0,0,0,.284-.031,1.06,1.06,0,0,0,.239-.082.573.573,0,0,0,.17-.121.269.269,0,0,0,.075-.147m-25.9-22.456a.95.95,0,0,1,.3-.487,2.266,2.266,0,0,1,.627-.4,4.025,4.025,0,0,1,.863-.267,5.2,5.2,0,0,1,1.012-.1,4.573,4.573,0,0,1,.968.1,2.791,2.791,0,0,1,.753.267,1.284,1.284,0,0,1,.467.4.642.642,0,0,1,.106.487l-4.317,22.456a1.1,1.1,0,0,1-.322.56,2.42,2.42,0,0,1-.674.458,4.193,4.193,0,0,1-.93.309,5.2,5.2,0,0,1-1.089.114,4.62,4.62,0,0,1-1.048-.114,2.9,2.9,0,0,1-.809-.309,1.366,1.366,0,0,1-.491-.458.765.765,0,0,1-.1-.56l4.681-22.456m12.995,0a.9.9,0,0,1,.281-.487,2.16,2.16,0,0,1,.612-.4,3.913,3.913,0,0,1,.852-.267,5.113,5.113,0,0,1,1-.1,4.629,4.629,0,0,1,.972.1,2.9,2.9,0,0,1,.764.267,1.355,1.355,0,0,1,.483.4.658.658,0,0,1,.127.487l-2.6,17.252a1.014,1.014,0,0,1-.293.543,2.264,2.264,0,0,1-.644.446,4.047,4.047,0,0,1-.9.3,5.159,5.159,0,0,1-1.067.111,4.69,4.69,0,0,1-1.033-.111,3.038,3.038,0,0,1-.81-.3,1.443,1.443,0,0,1-.5-.446.746.746,0,0,1-.121-.543l2.882-17.252m12.32,0a.852.852,0,0,1,.263-.487,2.04,2.04,0,0,1,.6-.4,3.772,3.772,0,0,1,.842-.267,5.037,5.037,0,0,1,1-.1,4.679,4.679,0,0,1,.975.1,3.011,3.011,0,0,1,.775.267,1.448,1.448,0,0,1,.5.4.678.678,0,0,1,.145.487l-2.507,22.456a1,1,0,0,1-.277.56,2.162,2.162,0,0,1-.637.458,3.881,3.881,0,0,1-.9.309,5.061,5.061,0,0,1-1.079.114,4.719,4.719,0,0,1-1.054-.114,3.126,3.126,0,0,1-.834-.309,1.54,1.54,0,0,1-.53-.458.8.8,0,0,1-.144-.56l2.871-22.456m34.188,27.679.506-29.011a6.57,6.57,0,0,0-1.738-4.4,14.8,14.8,0,0,0-4.815-3.506,30.066,30.066,0,0,0-7.117-2.32,44.284,44.284,0,0,0-8.752-.841l-6.219-.153-3.542-2.182a2.7,2.7,0,0,0-.87-.325,4.776,4.776,0,0,0-1.059-.092,4.968,4.968,0,0,0-1.069.136,3.084,3.084,0,0,0-.9.36l-3.348,2.1-23.14.153c-1.422,0-2.829.061-4.208.181s-2.731.294-4.045.522-2.593.508-3.819.834-2.407.7-3.523,1.118q-.96.359-1.855.757t-1.721.836q-.824.437-1.571.91t-1.406.979a15.032,15.032,0,0,0-1.323,1.137,11.71,11.71,0,0,0-1.089,1.206,9.044,9.044,0,0,0-.832,1.269,7.218,7.218,0,0,0-.552,1.323l-8.718,29.011a7.306,7.306,0,0,0,.417,5.42,11.734,11.734,0,0,0,4.31,4.555,25.138,25.138,0,0,0,7.582,3.139,41.843,41.843,0,0,0,10.092,1.165h47.38a46.612,46.612,0,0,0,10.466-1.165,34.647,34.647,0,0,0,8.58-3.139,18.672,18.672,0,0,0,5.755-4.555,8.907,8.907,0,0,0,2.139-5.42" transform="translate(-12.062 -16.687)" fill="#ffeac4"/>
    <path id="Path_170" data-name="Path 170" d="M688.839,517.97a.123.123,0,0,1,.017-.106.277.277,0,0,1,.106-.088.682.682,0,0,1,.179-.059,1.227,1.227,0,0,1,.237-.021,1.384,1.384,0,0,1,.244.021,1.124,1.124,0,0,1,.213.059.664.664,0,0,1,.158.088.234.234,0,0,1,.081.106l5.653,18.5a.148.148,0,0,1-.014.121.284.284,0,0,1-.111.1.687.687,0,0,1-.187.067,1.186,1.186,0,0,1-.247.024,1.451,1.451,0,0,1-.266-.024,1.2,1.2,0,0,1-.23-.067.646.646,0,0,1-.171-.1.263.263,0,0,1-.089-.121l-5.574-18.5m8.7,18.5-5.764-18.5a.872.872,0,0,0-.307-.4,2.34,2.34,0,0,0-.6-.328,4.266,4.266,0,0,0-.8-.221,5.294,5.294,0,0,0-.924-.081,4.529,4.529,0,0,0-.878.081,2.6,2.6,0,0,0-.671.221,1.021,1.021,0,0,0-.4.328.466.466,0,0,0-.062.4l5.463,18.5a1,1,0,0,0,.33.459,2.469,2.469,0,0,0,.642.376,4.363,4.363,0,0,0,.865.254,5.325,5.325,0,0,0,1,.094,4.421,4.421,0,0,0,.935-.094,2.554,2.554,0,0,0,.708-.254,1.054,1.054,0,0,0,.412-.376.561.561,0,0,0,.051-.459" transform="translate(-25.824 -15.664)" fill="#ff745c"/>
    <path id="Path_171" data-name="Path 171" d="M676.8,517.97a.128.128,0,0,1,.021-.106.3.3,0,0,1,.11-.088.7.7,0,0,1,.182-.059,1.233,1.233,0,0,1,.237-.021,1.375,1.375,0,0,1,.244.021,1.1,1.1,0,0,1,.211.059.6.6,0,0,1,.155.088.218.218,0,0,1,.077.106l3.792,14.24a.142.142,0,0,1-.02.117.285.285,0,0,1-.113.1.709.709,0,0,1-.187.065,1.232,1.232,0,0,1-.244.024,1.487,1.487,0,0,1-.262-.024,1.132,1.132,0,0,1-.224-.065.607.607,0,0,1-.164-.1.242.242,0,0,1-.082-.117L676.8,517.97m6.815,14.24-3.877-14.24a.824.824,0,0,0-.292-.4,2.23,2.23,0,0,0-.583-.328,4.157,4.157,0,0,0-.794-.221,5.234,5.234,0,0,0-.92-.081,4.55,4.55,0,0,0-.878.081,2.71,2.71,0,0,0-.68.221,1.094,1.094,0,0,0-.413.328.476.476,0,0,0-.079.4l3.645,14.24a.916.916,0,0,0,.307.445,2.332,2.332,0,0,0,.619.364,4.265,4.265,0,0,0,.842.247,5.327,5.327,0,0,0,.975.09,4.568,4.568,0,0,0,.927-.09,2.673,2.673,0,0,0,.709-.247,1.108,1.108,0,0,0,.423-.364.545.545,0,0,0,.07-.445" transform="translate(-25.001 -15.664)" fill="#ff745c"/>
    <path id="Path_172" data-name="Path 172" d="M664.1,517.97a.13.13,0,0,1,.024-.106.312.312,0,0,1,.113-.088.728.728,0,0,1,.182-.059,1.21,1.21,0,0,1,.234-.021,1.4,1.4,0,0,1,.247.021,1.058,1.058,0,0,1,.211.059.566.566,0,0,1,.152.088.2.2,0,0,1,.073.106l4.162,18.5a.152.152,0,0,1-.025.121.311.311,0,0,1-.118.1.778.778,0,0,1-.2.067,1.251,1.251,0,0,1-.253.024,1.381,1.381,0,0,1-.259-.024,1.1,1.1,0,0,1-.223-.067.592.592,0,0,1-.163-.1.245.245,0,0,1-.078-.121l-4.081-18.5m7.209,18.5-4.271-18.5a.782.782,0,0,0-.277-.4,2.113,2.113,0,0,0-.573-.328,4.039,4.039,0,0,0-.786-.221,5.2,5.2,0,0,0-.919-.081,4.585,4.585,0,0,0-.88.081,2.756,2.756,0,0,0-.686.221,1.153,1.153,0,0,0-.425.328.493.493,0,0,0-.094.4l3.971,18.5a.9.9,0,0,0,.292.459,2.225,2.225,0,0,0,.61.376,4.068,4.068,0,0,0,.842.254,5.156,5.156,0,0,0,.985.094,4.558,4.558,0,0,0,.945-.094,2.756,2.756,0,0,0,.73-.254,1.2,1.2,0,0,0,.446-.376.574.574,0,0,0,.089-.459" transform="translate(-24.132 -15.664)" fill="#ff745c"/>
    <path id="Path_173" data-name="Path 173" d="M555.066,548.084a.219.219,0,0,1,.07-.129.537.537,0,0,1,.16-.105,1.054,1.054,0,0,1,.225-.071,1.355,1.355,0,0,1,.266-.026,1.238,1.238,0,0,1,.258.026.809.809,0,0,1,.206.071.369.369,0,0,1,.132.105.174.174,0,0,1,.038.129l-2.64,22.456a.269.269,0,0,1-.075.147.573.573,0,0,1-.17.121,1.06,1.06,0,0,1-.239.082,1.324,1.324,0,0,1-.284.031,1.246,1.246,0,0,1-.279-.031.865.865,0,0,1-.223-.082.417.417,0,0,1-.143-.121.2.2,0,0,1-.041-.147l2.738-22.456m.718,22.456,2.507-22.456a.678.678,0,0,0-.145-.487,1.449,1.449,0,0,0-.5-.4,3.011,3.011,0,0,0-.775-.267,4.679,4.679,0,0,0-.975-.1,5.037,5.037,0,0,0-1,.1,3.772,3.772,0,0,0-.842.267,2.041,2.041,0,0,0-.6.4.852.852,0,0,0-.263.487l-2.871,22.456a.8.8,0,0,0,.144.56,1.54,1.54,0,0,0,.53.458,3.126,3.126,0,0,0,.834.309,4.719,4.719,0,0,0,1.054.114,5.061,5.061,0,0,0,1.079-.114,3.881,3.881,0,0,0,.9-.309,2.162,2.162,0,0,0,.637-.458,1,1,0,0,0,.277-.56" transform="translate(-16.467 -17.709)" fill="#ff745c"/>
    <path id="Path_174" data-name="Path 174" d="M541.848,548.084a.233.233,0,0,1,.075-.129.542.542,0,0,1,.161-.105,1.071,1.071,0,0,1,.225-.071,1.355,1.355,0,0,1,.266-.026,1.222,1.222,0,0,1,.257.026.786.786,0,0,1,.2.071.353.353,0,0,1,.129.105.17.17,0,0,1,.033.129l-2.705,17.252a.267.267,0,0,1-.079.145.612.612,0,0,1-.171.119,1.07,1.07,0,0,1-.238.079,1.311,1.311,0,0,1-.281.03,1.175,1.175,0,0,1-.271-.03.784.784,0,0,1-.213-.079.386.386,0,0,1-.134-.119.2.2,0,0,1-.033-.145l2.779-17.252m.615,17.252,2.6-17.252a.658.658,0,0,0-.127-.487,1.356,1.356,0,0,0-.483-.4,2.9,2.9,0,0,0-.764-.267,4.629,4.629,0,0,0-.972-.1,5.113,5.113,0,0,0-1,.1,3.913,3.913,0,0,0-.852.267,2.161,2.161,0,0,0-.612.4.9.9,0,0,0-.281.487l-2.882,17.252a.746.746,0,0,0,.121.543,1.443,1.443,0,0,0,.5.446,3.038,3.038,0,0,0,.81.3,4.69,4.69,0,0,0,1.033.111,5.159,5.159,0,0,0,1.067-.111,4.047,4.047,0,0,0,.9-.3,2.264,2.264,0,0,0,.644-.446,1.014,1.014,0,0,0,.293-.543" transform="translate(-15.561 -17.709)" fill="#ff745c"/>
    <path id="Path_175" data-name="Path 175" d="M527.759,548.084a.248.248,0,0,1,.079-.129.6.6,0,0,1,.167-.105,1.125,1.125,0,0,1,.231-.071,1.415,1.415,0,0,1,.272-.026,1.2,1.2,0,0,1,.255.026.765.765,0,0,1,.2.071.335.335,0,0,1,.124.105.171.171,0,0,1,.028.129l-4.451,22.456a.291.291,0,0,1-.086.147.646.646,0,0,1-.18.121,1.117,1.117,0,0,1-.246.082,1.362,1.362,0,0,1-.287.031,1.236,1.236,0,0,1-.279-.031.79.79,0,0,1-.216-.082.37.37,0,0,1-.131-.121.2.2,0,0,1-.027-.147l4.547-22.456m-1.091,22.456,4.317-22.456a.642.642,0,0,0-.106-.487,1.285,1.285,0,0,0-.467-.4,2.791,2.791,0,0,0-.753-.267,4.574,4.574,0,0,0-.968-.1,5.2,5.2,0,0,0-1.012.1,4.026,4.026,0,0,0-.863.267,2.268,2.268,0,0,0-.627.4.951.951,0,0,0-.3.487l-4.681,22.456a.766.766,0,0,0,.1.56,1.365,1.365,0,0,0,.491.458,2.9,2.9,0,0,0,.809.309,4.62,4.62,0,0,0,1.048.114,5.2,5.2,0,0,0,1.089-.114,4.192,4.192,0,0,0,.93-.309,2.42,2.42,0,0,0,.674-.458,1.1,1.1,0,0,0,.322-.56" transform="translate(-14.474 -17.709)" fill="#ff745c"/>
    <path id="Path_176" data-name="Path 176" d="M791.528,596.7l-54.1-98.254-235.614.142,201.709,98.371,87.547-.256.459,0" transform="translate(-13.149 -14.399)" fill="#ff9e8c" opacity="0.57"/>
  </g>
</svg>
