<svg xmlns="http://www.w3.org/2000/svg" width="415.937" height="450.408" viewBox="0 0 415.937 450.408">
  <g id="flexible-payment-options" transform="translate(-284.252 -146.85)">
    <path id="Path_201" data-name="Path 201" d="M379.066,232.775l-32.193-22.509a38.785,38.785,0,0,0-54.025,9.475h0a38.785,38.785,0,0,0,9.476,54.025l37.512,26.317h0a69.752,69.752,0,0,0,17.041,97.161L582.839,555.773" transform="translate(0 -18.966)" fill="none" stroke="#ff745c" stroke-miterlimit="10" stroke-width="3"/>
    <path id="Path_202" data-name="Path 202" d="M775.362,670.942,792.2,682.753a38.784,38.784,0,0,0,54.025-9.475h0a38.785,38.785,0,0,0-9.475-54.025l-22.387-16.38h0a69.752,69.752,0,0,0-17.041-97.161l-39.26-27.45" transform="translate(-166.967 -116.206)" fill="none" stroke="#ff745c" stroke-miterlimit="10" stroke-width="3"/>
    <path id="Path_203" data-name="Path 203" d="M813,284.847c1.946,1.906,4.557,4.433,6.4,6.441l3.853,4.645c5.271,9.991-16.51,38.508-50.664,66.332,40.482-41.539,49.467-68.814,40.413-77.418" transform="translate(-172.102 -47.823)" fill="#ff745c"/>
    <path id="Path_204" data-name="Path 204" d="M372.883,693.558c-1.744-2.092-4.089-4.869-5.718-7.051L363.8,681.5c-4.241-10.47,20.3-36.655,57.072-60.907-44.451,37.262-56.13,63.5-47.987,72.967" transform="translate(-27.405 -166.528)" fill="#ff745c"/>
    <path id="Path_205" data-name="Path 205" d="M406.136,371.284A4.736,4.736,0,1,1,399,365.053" transform="translate(-39.607 -76.181)" fill="none" stroke="#ff745c" stroke-miterlimit="10" stroke-width="3"/>
    <path id="Path_206" data-name="Path 206" d="M920.536,421.881a4.735,4.735,0,1,1-7.133-6.23" transform="translate(-221.477 -94.07)" fill="none" stroke="#ff745c" stroke-miterlimit="10" stroke-width="3"/>
    <path id="Path_207" data-name="Path 207" d="M425.529,791.165a4.735,4.735,0,0,1-7.133-6.23" transform="translate(-46.464 -224.633)" fill="none" stroke="#ff745c" stroke-miterlimit="10" stroke-width="3"/>
    <circle id="Ellipse_17" data-name="Ellipse 17" cx="4.735" cy="4.735" r="4.735" transform="translate(374.915 188.105)" fill="none" stroke="#ff745c" stroke-miterlimit="10" stroke-width="3"/>
    <circle id="Ellipse_18" data-name="Ellipse 18" cx="4.735" cy="4.735" r="4.735" transform="translate(631.187 347.997)" fill="none" stroke="#ff745c" stroke-miterlimit="10" stroke-width="3"/>
    <circle id="Ellipse_19" data-name="Ellipse 19" cx="4.735" cy="4.735" r="4.735" transform="translate(305.208 471.403)" fill="none" stroke="#ff745c" stroke-miterlimit="10" stroke-width="3"/>
    <path id="Path_208" data-name="Path 208" d="M893.554,546.246l6.838-7.428,3.747,8.914Z" transform="translate(-214.872 -137.616)" fill="none" stroke="#ff745c" stroke-miterlimit="10" stroke-width="3"/>
    <path id="Path_209" data-name="Path 209" d="M594.865,833.143l2.7-9.728,7.4,6.228Z" transform="translate(-109.269 -238.238)" fill="none" stroke="#ff745c" stroke-miterlimit="10" stroke-width="3"/>
    <path id="Path_210" data-name="Path 210" d="M593.306,157.012l6.838-7.428,3.747,8.914Z" transform="translate(-108.718)" fill="none" stroke="#ff745c" stroke-miterlimit="10" stroke-width="3"/>
    <path id="Path_211" data-name="Path 211" d="M369.786,553.571l6.838-7.428,3.747,8.914Z" transform="translate(-29.69 -140.206)" fill="none" stroke="#ff745c" stroke-miterlimit="10" stroke-width="3"/>
    <g id="Group_239" data-name="Group 239" transform="translate(614.715 196.703)">
      <line id="Line_16" data-name="Line 16" x2="6.591" y2="8.988" transform="translate(1.198 0)" fill="none" stroke="#ff745c" stroke-miterlimit="10" stroke-width="3"/>
      <line id="Line_17" data-name="Line 17" x1="8.988" y2="6.591" transform="translate(0 1.198)" fill="none" stroke="#ff745c" stroke-miterlimit="10" stroke-width="3"/>
    </g>
    <g id="Group_240" data-name="Group 240" transform="translate(623.703 518.715)">
      <line id="Line_18" data-name="Line 18" x2="6.591" y2="8.988" transform="translate(1.198)" fill="none" stroke="#ff745c" stroke-miterlimit="10" stroke-width="3"/>
      <line id="Line_19" data-name="Line 19" x1="8.988" y2="6.591" transform="translate(0 1.198)" fill="none" stroke="#ff745c" stroke-miterlimit="10" stroke-width="3"/>
    </g>
    <g id="Group_241" data-name="Group 241" transform="translate(290.475 357.468)">
      <line id="Line_20" data-name="Line 20" x2="6.591" y2="8.988" transform="translate(1.198)" fill="none" stroke="#ff745c" stroke-miterlimit="10" stroke-width="3"/>
      <line id="Line_21" data-name="Line 21" x1="8.988" y2="6.591" transform="translate(0 1.198)" fill="none" stroke="#ff745c" stroke-miterlimit="10" stroke-width="3"/>
    </g>
    <g id="Group_243" data-name="Group 243" transform="translate(395.807 194.791)">
      <rect id="Rectangle_93" data-name="Rectangle 93" width="201.747" height="382.221" rx="40.869" transform="translate(0 0)" fill="#e0e0e0"/>
      <path id="Path_212" data-name="Path 212" d="M705.754,245.935V575.317a26.422,26.422,0,0,1-26.419,26.419H667.325L640.22,551.643l52.838-.343V269.266l-75.483-.686-25.733-49.064h87.492A26.422,26.422,0,0,1,705.754,245.935Z" transform="translate(-504.007 -219.516)" fill="#eaeaea"/>
      <g id="Rectangle_94" data-name="Rectangle 94" transform="translate(12.352 50.094)" fill="#ff745c" stroke="#535353" stroke-miterlimit="10" stroke-width="1">
        <rect width="177.043" height="282.033" stroke="none"/>
        <rect x="-0.5" y="-0.5" width="178.043" height="283.033" fill="none"/>
      </g>
      <g id="Ellipse_20" data-name="Ellipse 20" transform="translate(87.835 344.136)" fill="none" stroke="#8d8d8d" stroke-miterlimit="10" stroke-width="4">
        <circle cx="13.038" cy="13.038" r="13.038" stroke="none"/>
        <circle cx="13.038" cy="13.038" r="15.038" fill="none"/>
      </g>
      <g id="Group_242" data-name="Group 242" transform="translate(69.994 30.88)">
        <rect id="Rectangle_95" data-name="Rectangle 95" width="47.349" height="4.803" rx="2.402" transform="translate(14.41)" fill="#747474"/>
        <circle id="Ellipse_21" data-name="Ellipse 21" cx="2.745" cy="2.745" r="2.745" fill="#747474"/>
      </g>
      <path id="Path_213" data-name="Path 213" d="M474.887,531.5,651.93,327.012l-.343-30.536H474.544Z" transform="translate(-462.535 -246.726)" fill="#ff8974"/>
      <line id="Line_22" data-name="Line 22" y1="41.859" x2="38.428" transform="translate(74.454 260.418)" fill="none" stroke="#ff8c78" stroke-linecap="round" stroke-linejoin="round" stroke-width="12"/>
      <line id="Line_23" data-name="Line 23" y1="15.097" x2="14.41" transform="translate(136.213 221.304)" fill="none" stroke="#ff8c78" stroke-linecap="round" stroke-linejoin="round" stroke-width="12"/>
    </g>
    <path id="Path_214" data-name="Path 214" d="M784.9,289.706c-1.893-1.958-4.4-4.588-6.4-6.441-17.475-12.486-61.623,18.874-74.738,28.783-4.776-5.106-6.1-6.51-11.216-11.754-4.3,10.239-14.361,34.216-17.533,59.513,36-8.915,43.5-10.77,59.085-13.015-5.329-6.4-6.744-8.077-12.58-14.875,35.114-32.415,61.759-44.556,67.233-37.567l-3.853-4.645" transform="translate(-137.605 -46.24)" fill="#dadada"/>
    <path id="Path_215" data-name="Path 215" d="M367.425,690.448c1.687,2.138,3.918,5.007,5.718,7.051,16.132,14.178,63.208-12.588,77.252-21.128,4.239,5.559,5.413,7.09,9.978,12.82,5.3-9.755,17.726-32.6,23.424-57.451-36.717,5.253-44.358,6.346-60.093,7.013,4.66,6.9,5.9,8.713,11.022,16.063-38.192,28.723-65.923,38.126-70.667,30.623l3.367,5.009" transform="translate(-27.665 -170.47)" fill="#f0f0f0"/>
    <g id="Group_247" data-name="Group 247" transform="translate(439.454 321.7)">
      <g id="Path_216" data-name="Path 216" transform="translate(-526.006 -415.836)" fill="none" stroke-miterlimit="10">
        <path d="M583.114,416.131l51.524,46.139a1.185,1.185,0,0,1-.783,2.074H531.8a1.185,1.185,0,0,1-.791-2.067l50.533-46.139A1.186,1.186,0,0,1,583.114,416.131Z" stroke="none"/>
        <path d="M 582.3363037109375 418.1191711425781 L 533.8997192382813 462.3435668945313 L 631.7228393554688 462.3435668945313 L 582.3363037109375 418.1191711425781 M 582.3311767578125 415.8355712890625 C 582.6105346679688 415.8355712890625 582.889892578125 415.933837890625 583.1136474609375 416.130615234375 L 634.6378173828125 462.2691955566406 C 635.4581298828125 462.9906005859375 634.9473876953125 464.3435668945313 633.8548583984375 464.3435668945313 L 531.7977294921875 464.3435668945313 C 530.7110595703125 464.3435668945313 530.19775390625 463.0028991699219 531.0065307617188 462.2769165039063 L 581.53955078125 416.1383666992188 C 581.7647094726563 415.9365844726563 582.0479125976563 415.8355712890625 582.3311767578125 415.8355712890625 Z" stroke="none" fill="#fff"/>
      </g>
      <path id="Path_217" data-name="Path 217" d="M535.642,570.454v-2.23c0-2.011,2.046-3.641,4.57-3.641H629.93c2.524,0,4.57,1.63,4.57,3.641v2.23" transform="translate(-527.785 -468.426)" fill="none" stroke="#fff" stroke-miterlimit="10" stroke-width="2"/>
      <g id="Rectangle_96" data-name="Rectangle 96" transform="translate(0 101.712)" fill="none" stroke="#fff" stroke-miterlimit="10" stroke-width="2">
        <path d="M8.166,0h98.241a8.166,8.166,0,0,1,8.166,8.166V9.1a0,0,0,0,1,0,0H0a0,0,0,0,1,0,0V8.166A8.166,8.166,0,0,1,8.166,0Z" stroke="none"/>
        <path d="M7.232,1H107.341a6.232,6.232,0,0,1,6.232,6.232v0a.87.87,0,0,1-.87.87H1.87A.87.87,0,0,1,1,7.232v0A6.232,6.232,0,0,1,7.232,1Z" fill="none"/>
      </g>
      <g id="Group_244" data-name="Group 244" transform="translate(48.572 48.853)">
        <path id="Path_218" data-name="Path 218" d="M617.056,491.408v3.3a2.573,2.573,0,0,1-2.573,2.573H601.2a2.573,2.573,0,0,1-2.574-2.573v-3.3" transform="translate(-598.625 -491.408)" fill="none" stroke="#fff" stroke-miterlimit="10" stroke-width="2"/>
        <path id="Path_219" data-name="Path 219" d="M598.625,562.061v-2.842a3.029,3.029,0,0,1,3.029-3.029h12.374a3.029,3.029,0,0,1,3.029,3.029v2.842" transform="translate(-598.625 -514.312)" fill="none" stroke="#fff" stroke-miterlimit="10" stroke-width="2"/>
        <g id="Rectangle_97" data-name="Rectangle 97" transform="translate(3.122 5.351)" fill="none" stroke="#fff" stroke-miterlimit="10" stroke-width="2">
          <rect width="12.188" height="37.01" stroke="none"/>
          <rect x="1" y="1" width="10.188" height="35.01" fill="none"/>
        </g>
      </g>
      <g id="Group_245" data-name="Group 245" transform="translate(18.82 48.741)">
        <path id="Path_220" data-name="Path 220" d="M571.031,491.235v3.3a2.574,2.574,0,0,1-2.573,2.573H555.173a2.573,2.573,0,0,1-2.573-2.573v-3.3" transform="translate(-552.6 -491.235)" fill="none" stroke="#fff" stroke-miterlimit="10" stroke-width="2"/>
        <path id="Path_221" data-name="Path 221" d="M552.6,561.889v-2.843a3.028,3.028,0,0,1,3.028-3.029H568a3.029,3.029,0,0,1,3.029,3.029v2.843" transform="translate(-552.6 -514.139)" fill="none" stroke="#fff" stroke-miterlimit="10" stroke-width="2"/>
        <g id="Rectangle_98" data-name="Rectangle 98" transform="translate(3.121 5.351)" fill="none" stroke="#fff" stroke-miterlimit="10" stroke-width="2">
          <rect width="12.188" height="37.01" stroke="none"/>
          <rect x="1" y="1" width="10.188" height="35.01" fill="none"/>
        </g>
      </g>
      <g id="Group_246" data-name="Group 246" transform="translate(79.105 48.834)">
        <path id="Path_222" data-name="Path 222" d="M664.288,491.379v3.3a2.573,2.573,0,0,1-2.573,2.573H648.43a2.573,2.573,0,0,1-2.573-2.573v-3.3" transform="translate(-645.857 -491.379)" fill="none" stroke="#fff" stroke-miterlimit="10" stroke-width="2"/>
        <path id="Path_223" data-name="Path 223" d="M645.857,562.032V559.19a3.029,3.029,0,0,1,3.029-3.029h12.374a3.029,3.029,0,0,1,3.029,3.029v2.842" transform="translate(-645.857 -514.283)" fill="none" stroke="#fff" stroke-miterlimit="10" stroke-width="2"/>
        <g id="Rectangle_99" data-name="Rectangle 99" transform="translate(3.121 5.351)" fill="none" stroke="#fff" stroke-miterlimit="10" stroke-width="2">
          <rect width="12.188" height="37.01" stroke="none"/>
          <rect x="1" y="1" width="10.188" height="35.01" fill="none"/>
        </g>
      </g>
      <g id="Path_224" data-name="Path 224" transform="translate(-551.608 -431.94)" fill="none" stroke-miterlimit="10">
        <path d="M611.644,466.7h-.679v-1.635h.679a.669.669,0,0,0,0-1.337h-.679v-1.745a.541.541,0,0,0-.6-.6h-.438a.541.541,0,0,0-.6.6v1.745h-1.981l-1.135-1.935a.773.773,0,0,0-.712-.406h-.681a.541.541,0,0,0-.6.6v1.745h-.54a.669.669,0,0,0,0,1.337h.54V466.7h-.54a.669.669,0,0,0,0,1.337h.54V469.3a.54.54,0,0,0,.6.6h.438a.54.54,0,0,0,.6-.6v-1.262h2.268l.85,1.45a.771.771,0,0,0,.711.407h.681a.54.54,0,0,0,.6-.6v-1.262h.679a.669.669,0,0,0,0-1.337Zm-2.308-1.635V466.7H609.1l-.959-1.635ZM605.86,466.7v-1.635h.524l.959,1.635Z" stroke="none"/>
        <path d="M 610.3698120117188 469.8944702148438 C 610.5598754882813 469.8944702148438 610.7066040039063 469.8427429199219 610.8099975585938 469.7393188476563 C 610.9134521484375 469.6365356445313 610.9652099609375 469.4891357421875 610.9652099609375 469.2991027832031 L 610.9652099609375 468.0372314453125 L 611.6439819335938 468.0372314453125 C 612.0130615234375 468.0372314453125 612.3123779296875 467.7379150390625 612.3123779296875 467.3681640625 C 612.3123779296875 466.9990539550781 612.0130615234375 466.6997375488281 611.6439819335938 466.6997375488281 L 610.9652099609375 466.6997375488281 L 610.9652099609375 465.0642395019531 L 611.6439819335938 465.0642395019531 C 612.0130615234375 465.0642395019531 612.3123779296875 464.7649536132813 612.3123779296875 464.3958129882813 C 612.3123779296875 464.0260314941406 612.0130615234375 463.7267456054688 611.6439819335938 463.7267456054688 L 610.9652099609375 463.7267456054688 L 610.9652099609375 461.9819946289063 C 610.9652099609375 461.7912902832031 610.9134521484375 461.6445617675781 610.8099975585938 461.5411376953125 C 610.7066040039063 461.4377136230469 610.5598754882813 461.385986328125 610.3698120117188 461.385986328125 L 609.9321899414063 461.385986328125 C 609.741455078125 461.385986328125 609.5947265625 461.4377136230469 609.4912719726563 461.5411376953125 C 609.3878784179688 461.6445617675781 609.3361206054688 461.7912902832031 609.3361206054688 461.9813537597656 L 609.3361206054688 463.7267456054688 L 607.3548583984375 463.7267456054688 L 606.2202758789063 461.7919311523438 C 606.0619506835938 461.5217590332031 605.8253173828125 461.385986328125 605.508544921875 461.385986328125 L 604.827880859375 461.385986328125 C 604.63720703125 461.385986328125 604.48974609375 461.4377136230469 604.3863525390625 461.5411376953125 C 604.2828979492188 461.6445617675781 604.2312622070313 461.7912902832031 604.2312622070313 461.9819946289063 L 604.2312622070313 463.7267456054688 L 603.69140625 463.7267456054688 C 603.3223266601563 463.7267456054688 603.0230102539063 464.0260314941406 603.0230102539063 464.3958129882813 C 603.0230102539063 464.7649536132813 603.3223266601563 465.0642395019531 603.69140625 465.0642395019531 L 604.2312622070313 465.0642395019531 L 604.2312622070313 466.6997375488281 L 603.69140625 466.6997375488281 C 603.3223266601563 466.6997375488281 603.0230102539063 466.9990539550781 603.0230102539063 467.3681640625 C 603.0230102539063 467.7379150390625 603.3223266601563 468.0372314453125 603.69140625 468.0372314453125 L 604.2312622070313 468.0372314453125 L 604.2312622070313 469.2991027832031 C 604.2312622070313 469.4891357421875 604.2828979492188 469.6365356445313 604.3863525390625 469.7393188476563 C 604.48974609375 469.8427429199219 604.6365356445313 469.8944702148438 604.8272705078125 469.8944702148438 L 605.264892578125 469.8944702148438 C 605.4548950195313 469.8944702148438 605.6016845703125 469.8427429199219 605.705078125 469.7393188476563 C 605.8085327148438 469.6365356445313 605.8602294921875 469.4891357421875 605.8602294921875 469.2991027832031 L 605.8602294921875 468.0372314453125 L 608.1279907226563 468.0372314453125 L 608.97802734375 469.4872131347656 C 609.1358032226563 469.7586975097656 609.3729858398438 469.8944702148438 609.6891479492188 469.8944702148438 L 610.3698120117188 469.8944702148438 M 608.1389770507813 465.0642395019531 L 609.3361206054688 465.0642395019531 L 609.3361206054688 466.6997375488281 L 609.0975952148438 466.6997375488281 L 608.1389770507813 465.0642395019531 M 607.3432006835938 466.6997375488281 L 605.8602294921875 466.6997375488281 L 605.8602294921875 465.0642395019531 L 606.384521484375 465.0642395019531 L 607.3432006835938 466.6997375488281 M 610.3698120117188 471.8944702148438 L 609.6891479492188 471.8944702148438 C 608.7692260742188 471.8944702148438 607.9630737304688 471.4890747070313 607.4318237304688 470.7708129882813 C 607.3411865234375 470.9080200195313 607.2367553710938 471.0361328125 607.1195068359375 471.1533203125 L 607.1195068359375 471.1533203125 C 606.6417236328125 471.6312561035156 605.9830322265625 471.8944702148438 605.264892578125 471.8944702148438 L 604.8272705078125 471.8944702148438 C 604.108642578125 471.8944702148438 603.44970703125 471.6312561035156 602.971923828125 471.1533203125 C 602.5645751953125 470.7463684082031 602.3133544921875 470.2077941894531 602.2482299804688 469.6123046875 C 601.5115966796875 469.13671875 601.0230102539063 468.3084716796875 601.0230102539063 467.3681640625 C 601.0230102539063 466.8184814453125 601.1901245117188 466.3070068359375 601.4761352539063 465.8819885253906 C 601.1901245117188 465.4569702148438 601.0230102539063 464.9454956054688 601.0230102539063 464.3958129882813 C 601.0230102539063 463.4627685546875 601.504150390625 462.6400146484375 602.2312622070313 462.1627197265625 L 602.2312622070313 461.9819946289063 C 602.2312622070313 461.2633056640625 602.4944458007813 460.6044006347656 602.972412109375 460.1266479492188 C 603.44970703125 459.6492004394531 604.1088256835938 459.385986328125 604.827880859375 459.385986328125 L 605.508544921875 459.385986328125 C 606.4273071289063 459.385986328125 607.2337036132813 459.7909545898438 607.7657470703125 460.5081176757813 C 607.856201171875 460.3714904785156 607.9601440429688 460.2438659667969 608.076904296875 460.1270446777344 C 608.5550537109375 459.6490478515625 609.2138061523438 459.385986328125 609.9321899414063 459.385986328125 L 610.3698120117188 459.385986328125 C 611.0879516601563 459.385986328125 611.7466430664063 459.6492004394531 612.2244262695313 460.1271362304688 C 612.7019653320313 460.6044921875 612.9652099609375 461.2633972167969 612.9652099609375 461.9819946289063 L 612.9652099609375 462.0774841308594 C 613.7693481445313 462.5377807617188 614.3123779296875 463.4045715332031 614.3123779296875 464.3958129882813 C 614.3123779296875 464.9454956054688 614.145263671875 465.4569702148438 613.8592529296875 465.8819885253906 C 614.145263671875 466.3070068359375 614.3123779296875 466.8184814453125 614.3123779296875 467.3681640625 C 614.3123779296875 468.3710021972656 613.7565307617188 469.2464599609375 612.9368896484375 469.7024841308594 C 612.857177734375 470.2620239257813 612.6111450195313 470.7669677734375 612.2244262695313 471.1533203125 L 612.2244262695313 471.1533203125 C 611.7466430664063 471.6312561035156 611.0879516601563 471.8944702148438 610.3698120117188 471.8944702148438 Z" stroke="none" fill="#fff"/>
      </g>
    </g>
  </g>
</svg>
