<svg xmlns="http://www.w3.org/2000/svg" width="397.476" height="417.534" viewBox="0 0 397.476 417.534">
  <g id="maintenance-request" transform="translate(-333.237 -172.2)">
    <g id="Group_235" data-name="Group 235" transform="translate(403.906 492.826)">
      <path id="Path_177" data-name="Path 177" d="M454.042,697.052l1.727-4.119a5.482,5.482,0,0,0,.683,5.235l-1.727,4.12A5.479,5.479,0,0,1,454.042,697.052Z" transform="translate(-453.656 -674.973)" fill="#909090"/>
      <path id="Path_178" data-name="Path 178" d="M561.605,760.789l-1.727,4.119a5.184,5.184,0,0,1-2.653,2.683l1.727-4.119A5.184,5.184,0,0,0,561.605,760.789Z" transform="translate(-470.428 -685.962)" fill="#4f4f4f"/>
      <path id="Path_179" data-name="Path 179" d="M552.872,763.991l-1.728,4.119-31.466,14.673,1.728-4.119Z" transform="translate(-464.348 -686.48)" fill="#4f4f4f"/>
      <path id="Path_180" data-name="Path 180" d="M501.724,765.456,500,769.576,454.931,703.3l1.728-4.119Z" transform="translate(-453.863 -675.985)" fill="#7d7d7d"/>
      <path id="Path_181" data-name="Path 181" d="M519.628,780.975l-1.727,4.119a7.644,7.644,0,0,1-9.2-2.712l1.727-4.119A7.645,7.645,0,0,0,519.628,780.975Z" transform="translate(-462.571 -688.792)" fill="#656565"/>
      <path id="Path_182" data-name="Path 182" d="M490.22,672.107a7.651,7.651,0,0,1,9.2,2.712L544.482,741.1c2,2.937,1.118,6.479-1.968,7.918l-31.467,14.673a7.645,7.645,0,0,1-9.2-2.712L456.786,694.7a5.186,5.186,0,0,1,1.968-7.918Z" transform="translate(-453.99 -671.503)" fill="#e7e7e7"/>
      <path id="Path_183" data-name="Path 183" d="M490.22,672.107a7.651,7.651,0,0,1,9.2,2.712L544.482,741.1c2,2.937,1.118,6.479-1.968,7.918l-31.467,14.673a7.645,7.645,0,0,1-9.2-2.712L456.786,694.7a5.186,5.186,0,0,1,1.968-7.918Z" transform="translate(-453.99 -671.503)" fill="none"/>
      <g id="Group_234" data-name="Group 234" transform="translate(8.994 9.283)">
        <path id="Path_184" data-name="Path 184" d="M517.886,744.073a1.08,1.08,0,0,1-.718.057,1.013,1.013,0,0,1-.82-1.108l2.388-11.839a.78.78,0,0,1,.451-.552,1.073,1.073,0,0,1,.716-.056,1.016,1.016,0,0,1,.822,1.107l-2.39,11.84a.776.776,0,0,1-.448.551m4.022-18.757a1.079,1.079,0,0,1-.736.051,1.006,1.006,0,0,1-.8-1.119l.974-4.323a.783.783,0,0,1,.446-.535,1.078,1.078,0,0,1,.737-.051,1.006,1.006,0,0,1,.8,1.118l-.976,4.324a.777.777,0,0,1-.446.535m-10.228-36.288-10.02,55.855,6.822,10.168L545,738.024l-33.316-49m-3.994-5.874-.07.032,3.506,4.887-3.436-4.919" transform="translate(-470.612 -682.673)" fill="#ff745c"/>
        <path id="Path_185" data-name="Path 185" d="M495.995,745.745,464.83,700.053l36.516-17.027.047.067.07-.032,3.994,5.874,33.316,49-36.514,17.027-6.264-9.213m5.589-63.165-.34.159-36.514,17.027-.341.158.219.322,37.311,54.87.217.32.341-.158,36.513-17.027.341-.159-.217-.32L501.8,682.9l-.219-.322" transform="translate(-464.388 -682.58)" fill="#666"/>
        <path id="Path_186" data-name="Path 186" d="M536.293,766.475a3.666,3.666,0,0,1-4.413-1.282,2.485,2.485,0,0,1,.964-3.791,3.666,3.666,0,0,1,4.414,1.283,2.485,2.485,0,0,1-.965,3.79m-3.813-5.607a3.013,3.013,0,0,0-1.167,4.589,4.445,4.445,0,0,0,5.344,1.552,3.012,3.012,0,0,0,1.168-4.588,4.446,4.446,0,0,0-5.344-1.553" transform="translate(-475.127 -695.201)" fill="gray"/>
        <path id="Path_187" data-name="Path 187" d="M489.069,685.572l-8.775,4.092a.457.457,0,0,0-.178.7.675.675,0,0,0,.813.236l8.775-4.092a.458.458,0,0,0,.178-.7.676.676,0,0,0-.813-.236" transform="translate(-466.92 -683.056)" fill="gray"/>
        <path id="Path_188" data-name="Path 188" d="M476.824,692.067a.523.523,0,0,0-.2.8.774.774,0,0,0,.931.271.523.523,0,0,0,.2-.8.772.772,0,0,0-.928-.27" transform="translate(-466.352 -684.106)" fill="gray"/>
        <path id="Path_189" data-name="Path 189" d="M501.431,683.112l-36.515,17.027,31.165,45.693,9.462-56.811-4.064-5.842-.047-.067" transform="translate(-464.473 -682.666)" fill="#ff8974"/>
        <path id="Path_190" data-name="Path 190" d="M522.166,739.8a.88.88,0,0,0-.509.624l-2.7,13.367a1.144,1.144,0,0,0,.925,1.251,1.218,1.218,0,0,0,.811-.064.875.875,0,0,0,.506-.623l2.7-13.368a1.147,1.147,0,0,0-.928-1.25,1.211,1.211,0,0,0-.808.063" transform="translate(-473.507 -692.708)" fill="#ff8c78"/>
        <path id="Path_191" data-name="Path 191" d="M525.432,726.391a.919.919,0,0,0-.523.627l-1.142,5.07a1.18,1.18,0,0,0,.935,1.312,1.266,1.266,0,0,0,.863-.06.912.912,0,0,0,.523-.627l1.145-5.072a1.18,1.18,0,0,0-.937-1.311,1.266,1.266,0,0,0-.864.06" transform="translate(-474.259 -690.186)" fill="#ff8c78"/>
      </g>
    </g>
    <path id="Path_192" data-name="Path 192" d="M720.188,346.294A172.744,172.744,0,0,1,505.011,513.6c-7.7,2.743-28.228,15.769-38.164,21.731-1.325-11.922-1.987-32.235-3.789-38.523a172.607,172.607,0,1,1,257.13-150.509Z" transform="translate(-13.595)" fill="#fff" stroke="#ff745c" stroke-linejoin="round" stroke-width="3"/>
    <circle id="Ellipse_13" data-name="Ellipse 13" cx="5.243" cy="5.243" r="5.243" transform="translate(403.906 178.407)" fill="none" stroke="#ff745c" stroke-linejoin="round" stroke-width="3"/>
    <circle id="Ellipse_14" data-name="Ellipse 14" cx="3.707" cy="3.707" r="3.707" transform="translate(334.736 346.084)" fill="none" stroke="#ff745c" stroke-linejoin="round" stroke-width="3"/>
    <circle id="Ellipse_15" data-name="Ellipse 15" cx="4.462" cy="4.462" r="4.462" transform="translate(704.809 441.666)" fill="none" stroke="#ff745c" stroke-linejoin="round" stroke-width="3"/>
    <path id="Path_193" data-name="Path 193" d="M381.582,568.027a194.257,194.257,0,0,1-36.905-86.135" transform="translate(-3.356 -104.058)" fill="none" stroke="#ff745c" stroke-linejoin="round" stroke-width="3"/>
    <path id="Path_194" data-name="Path 194" d="M854.256,236.684A194.537,194.537,0,0,1,904.624,367.56" transform="translate(-175.411 -21.266)" fill="none" stroke="#ff745c" stroke-linejoin="round" stroke-width="3"/>
    <path id="Path_195" data-name="Path 195" d="M692.045,406.229v37.644a32.7,32.7,0,0,1-32.695,32.695H526.695A32.7,32.7,0,0,1,494,443.872v-117.9a32.7,32.7,0,0,1,32.695-32.695H550.08" transform="translate(-53.774 -40.375)" fill="none" stroke="#ff745c" stroke-linejoin="round" stroke-width="3"/>
    <path id="Path_196" data-name="Path 196" d="M700,293.278h28.9A32.7,32.7,0,0,1,761.6,325.973v17.9" transform="translate(-123.328 -40.375)" fill="none" stroke="#ff745c" stroke-linejoin="round" stroke-width="4"/>
    <rect id="Rectangle_86" data-name="Rectangle 86" width="122.26" height="5.299" rx="2.649" transform="translate(483.721 325.765)" fill="none" stroke="#ff745c" stroke-linejoin="round" stroke-width="3"/>
    <rect id="Rectangle_87" data-name="Rectangle 87" width="93.843" height="5.299" rx="2.649" transform="translate(483.721 354.007)" fill="none" stroke="#ff745c" stroke-linejoin="round" stroke-width="3"/>
    <rect id="Rectangle_88" data-name="Rectangle 88" width="71.755" height="5.299" rx="2.649" transform="translate(483.721 377.962)" fill="none" stroke="#ff745c" stroke-linejoin="round" stroke-width="3"/>
    <g id="Group_236" data-name="Group 236" transform="translate(503.912 218.234)">
      <circle id="Ellipse_16" data-name="Ellipse 16" cx="33.145" cy="33.145" r="33.145" transform="translate(0)" fill="none" stroke="#ff745c" stroke-linejoin="round" stroke-width="3"/>
      <path id="Path_197" data-name="Path 197" d="M621.889,290.1l6.342,7.065,18.531-18.475" transform="translate(-600.866 -253.683)" fill="none" stroke="#ff745c" stroke-linejoin="round" stroke-width="3"/>
    </g>
    <g id="Group_237" data-name="Group 237" transform="translate(564.253 300.379)">
      <rect id="Rectangle_89" data-name="Rectangle 89" width="24.553" height="95.634" transform="translate(75.85 9.484) rotate(45)" fill="none" stroke="#ff745c" stroke-linejoin="round" stroke-width="3"/>
      <rect id="Rectangle_90" data-name="Rectangle 90" width="8.724" height="95.634" transform="translate(81.447 15.081) rotate(45)" fill="none" stroke="#ff745c" stroke-linejoin="round" stroke-width="3"/>
      <path id="Rectangle_91" data-name="Rectangle 91" d="M4.362,0h0A4.362,4.362,0,0,1,8.724,4.362v6.4a0,0,0,0,1,0,0H0a0,0,0,0,1,0,0v-6.4A4.362,4.362,0,0,1,4.362,0Z" transform="translate(96.527) rotate(45)" fill="none" stroke="#ff745c" stroke-linejoin="round" stroke-width="3"/>
      <path id="Path_198" data-name="Path 198" d="M809.066,412.15l-3.089-3.089-2.455,2.455,2.075,2.075a1.435,1.435,0,0,1,0,2.029l-23.458,23.457a1.823,1.823,0,0,0,0,2.576h0a1.822,1.822,0,0,0,2.577,0l24.471-24.471h0a3.473,3.473,0,0,0,0-4.911Z" transform="translate(-715.134 -379.846)" fill="none" stroke="#ff745c" stroke-linejoin="round" stroke-width="3"/>
      <path id="Rectangle_92" data-name="Rectangle 92" d="M8.161,0h8.231a8.161,8.161,0,0,1,8.161,8.161v2.4a0,0,0,0,1,0,0H0a0,0,0,0,1,0,0v-2.4A8.161,8.161,0,0,1,8.161,0Z" transform="translate(83.32 2.014) rotate(45)" fill="none" stroke="#ff745c" stroke-linejoin="round" stroke-width="3"/>
      <path id="Path_199" data-name="Path 199" d="M707.365,498.725l-19.27,7.2a11.877,11.877,0,0,0-5.283-5.283l7.2-19.27Z" transform="translate(-681.777 -404.26)" fill="none" stroke="#ff745c" stroke-linejoin="round" stroke-width="3"/>
      <path id="Path_200" data-name="Path 200" d="M682.813,511.2l-1.563,5.831,5.831-1.563a9.451,9.451,0,0,0-4.269-4.269Z" transform="translate(-681.25 -414.331)" fill="none" stroke="#ff745c" stroke-linejoin="round" stroke-width="3"/>
    </g>
  </g>
</svg>
