<svg xmlns="http://www.w3.org/2000/svg" width="449.355" height="344.09" viewBox="0 0 449.355 344.09">
  <g id="payment-collection" transform="translate(-247.736 -223)">
    <g id="Group_212" data-name="Group 212" transform="translate(443.726 245.739)">
      <g id="Group_210" data-name="Group 210" transform="translate(0 0)">
        <rect id="Rectangle_51" data-name="Rectangle 51" width="215.597" height="121.08" rx="27" transform="translate(0 116.379) rotate(-32.67)" fill="#fff" stroke="#ff745c" stroke-miterlimit="10" stroke-width="2"/>
        <rect id="Rectangle_52" data-name="Rectangle 52" width="215.597" height="24.71" transform="translate(13.339 137.18) rotate(-32.67)" fill="#ffa798"/>
        <rect id="Rectangle_53" data-name="Rectangle 53" width="161.852" height="12.355" rx="6.178" transform="translate(62.643 159.135) rotate(-32.67)" fill="#fff" stroke="#ff745c" stroke-miterlimit="10" stroke-width="2"/>
        <rect id="Rectangle_54" data-name="Rectangle 54" width="56.833" height="4.44" rx="2.22" transform="translate(167.077 127.445) rotate(-32.67)" fill="#fff" stroke="#ff745c" stroke-miterlimit="10" stroke-width="2"/>
        <rect id="Rectangle_55" data-name="Rectangle 55" width="27.181" height="4.44" rx="2.22" transform="translate(131.715 150.121) rotate(-32.67)" fill="#fff" stroke="#ff745c" stroke-miterlimit="10" stroke-width="2"/>
      </g>
      <g id="Group_211" data-name="Group 211" transform="translate(8.349 109.822)">
        <rect id="Rectangle_56" data-name="Rectangle 56" width="215.597" height="121.08" rx="27" transform="translate(203.073 186.457) rotate(-160.375)" fill="#fff" stroke="#ff745c" stroke-miterlimit="10" stroke-width="2"/>
        <rect id="Rectangle_57" data-name="Rectangle 57" width="161.852" height="9.266" rx="4.633" transform="translate(196.707 88.433) rotate(-160.375)" fill="#fff" stroke="#ff745c" stroke-miterlimit="10" stroke-width="2"/>
        <rect id="Rectangle_58" data-name="Rectangle 58" width="37.622" height="16.371" rx="8.185" transform="translate(70.569 81.495) rotate(-160.375)" fill="#fff" stroke="#ff745c" stroke-miterlimit="10" stroke-width="2"/>
        <rect id="Rectangle_59" data-name="Rectangle 59" width="38.352" height="16.371" rx="8.185" transform="translate(114.213 97.057) rotate(-160.375)" fill="#fff" stroke="#ff745c" stroke-miterlimit="10" stroke-width="2"/>
        <rect id="Rectangle_60" data-name="Rectangle 60" width="39.747" height="16.371" rx="8.185" transform="translate(160.435 113.539) rotate(-160.375)" fill="#fff" stroke="#ff745c" stroke-miterlimit="10" stroke-width="2"/>
        <rect id="Rectangle_61" data-name="Rectangle 61" width="35.534" height="12.355" rx="6.178" transform="translate(131.989 142.589) rotate(-160.375)" fill="#fff" stroke="#ff745c" stroke-miterlimit="10" stroke-width="2"/>
        <rect id="Rectangle_62" data-name="Rectangle 62" width="35.534" height="12.355" rx="6.178" transform="translate(93.586 128.895) rotate(-160.375)" fill="#fff" stroke="#ff745c" stroke-miterlimit="10" stroke-width="2"/>
        <rect id="Rectangle_63" data-name="Rectangle 63" width="37.659" height="16.371" rx="8.185" transform="translate(205.33 129.547) rotate(-160.375)" fill="#fff" stroke="#ff745c" stroke-miterlimit="10" stroke-width="2"/>
        <path id="Path_118" data-name="Path 118" d="M850.967,672.988a14.025,14.025,0,0,1-8.438,8.489,14.054,14.054,0,1,0,7.275-20.4A14.024,14.024,0,0,1,850.967,672.988Z" transform="translate(-678.943 -522.689)" fill="#ffc7be"/>
        <path id="Path_119" data-name="Path 119" d="M821.341,677.783a13.993,13.993,0,0,0,9.52-.029,14.053,14.053,0,0,1,7.275-20.4,14.054,14.054,0,1,0-16.795,20.429Z" transform="translate(-667.275 -518.966)" fill="#ff745c"/>
        <ellipse id="Ellipse_3" data-name="Ellipse 3" cx="10.829" cy="5.096" rx="10.829" ry="5.096" transform="translate(158.786 157.076) rotate(-70.375)" fill="#ff9e8d"/>
      </g>
    </g>
    <g id="Group_215" data-name="Group 215" transform="translate(249.014 247.473)">
      <g id="Group_213" data-name="Group 213" transform="translate(5.241 77.976)">
        <rect id="Rectangle_64" data-name="Rectangle 64" width="215.597" height="121.08" rx="27" transform="translate(246.847 101.924) rotate(147.33)" fill="#fff" stroke="#ff745c" stroke-miterlimit="10" stroke-width="2"/>
        <rect id="Rectangle_65" data-name="Rectangle 65" width="215.597" height="24.71" transform="translate(233.508 81.123) rotate(147.33)" fill="#ffa798"/>
        <rect id="Rectangle_66" data-name="Rectangle 66" width="161.852" height="12.355" rx="6.178" transform="translate(184.204 59.168) rotate(147.33)" fill="#fff" stroke="#ff745c" stroke-miterlimit="10" stroke-width="2"/>
        <rect id="Rectangle_67" data-name="Rectangle 67" width="56.833" height="4.44" rx="2.22" transform="translate(79.77 90.858) rotate(147.33)" fill="#fff" stroke="#ff745c" stroke-miterlimit="10" stroke-width="2"/>
        <rect id="Rectangle_68" data-name="Rectangle 68" width="27.181" height="4.44" rx="2.22" transform="translate(115.131 68.183) rotate(147.33)" fill="#fff" stroke="#ff745c" stroke-miterlimit="10" stroke-width="2"/>
      </g>
      <g id="Group_214" data-name="Group 214" transform="translate(0 0)">
        <rect id="Rectangle_69" data-name="Rectangle 69" width="215.597" height="121.08" rx="27" transform="translate(40.666 0) rotate(19.625)" fill="#fff" stroke="#ff745c" stroke-miterlimit="10" stroke-width="2"/>
        <rect id="Rectangle_70" data-name="Rectangle 70" width="161.852" height="9.266" rx="4.633" transform="translate(47.032 98.024) rotate(19.625)" fill="#fff" stroke="#ff745c" stroke-miterlimit="10" stroke-width="2"/>
        <rect id="Rectangle_71" data-name="Rectangle 71" width="37.622" height="16.371" rx="8.185" transform="translate(173.17 104.962) rotate(19.625)" fill="#fff" stroke="#ff745c" stroke-miterlimit="10" stroke-width="2"/>
        <rect id="Rectangle_72" data-name="Rectangle 72" width="38.352" height="16.371" rx="8.185" transform="translate(129.526 89.4) rotate(19.625)" fill="#fff" stroke="#ff745c" stroke-miterlimit="10" stroke-width="2"/>
        <rect id="Rectangle_73" data-name="Rectangle 73" width="39.747" height="16.371" rx="8.185" transform="translate(83.304 72.919) rotate(19.625)" fill="#fff" stroke="#ff745c" stroke-miterlimit="10" stroke-width="2"/>
        <rect id="Rectangle_74" data-name="Rectangle 74" width="35.534" height="12.355" rx="6.178" transform="translate(111.75 43.868) rotate(19.625)" fill="#fff" stroke="#ff745c" stroke-miterlimit="10" stroke-width="2"/>
        <rect id="Rectangle_75" data-name="Rectangle 75" width="35.534" height="12.355" rx="6.178" transform="translate(150.153 57.562) rotate(19.625)" fill="#fff" stroke="#ff745c" stroke-miterlimit="10" stroke-width="2"/>
        <rect id="Rectangle_76" data-name="Rectangle 76" width="37.659" height="16.371" rx="8.185" transform="translate(38.409 56.91) rotate(19.625)" fill="#fff" stroke="#ff745c" stroke-miterlimit="10" stroke-width="2"/>
        <path id="Path_120" data-name="Path 120" d="M354.155,311.646a14.024,14.024,0,0,1,8.437-8.489,14.054,14.054,0,1,0-7.274,20.4A14.025,14.025,0,0,1,354.155,311.646Z" transform="translate(-282.44 -275.489)" fill="#ffc7be"/>
        <path id="Path_121" data-name="Path 121" d="M383.781,306.852a14,14,0,0,0-9.52.029,14.053,14.053,0,0,1-7.274,20.4,14.054,14.054,0,1,0,16.794-20.43Z" transform="translate(-294.109 -279.212)" fill="#ff745c"/>
        <ellipse id="Ellipse_4" data-name="Ellipse 4" cx="10.829" cy="5.096" rx="10.829" ry="5.096" transform="translate(68.078 46.358) rotate(-70.375)" fill="#ff9e8d"/>
      </g>
    </g>
    <g id="Group_217" data-name="Group 217" transform="translate(382.44 223)">
      <path id="Path_258" data-name="Path 258" d="M38.5,0H143.12a38.5,38.5,0,0,1,38.5,38.5V305.59a38.5,38.5,0,0,1-38.5,38.5H38.5A38.5,38.5,0,0,1,0,305.59V38.5A38.5,38.5,0,0,1,38.5,0Z" fill="#d4d4d4"/>
      <path id="Path_122" data-name="Path 122" d="M695.547,246.784V543.306a23.786,23.786,0,0,1-23.784,23.784H660.953l-24.4-45.1,47.567-.309v-253.9l-67.953-.618L593,223h78.764A23.786,23.786,0,0,1,695.547,246.784Z" transform="translate(-513.927 -223)" fill="#e0dfdf"/>
      <g id="Rectangle_78" data-name="Rectangle 78" transform="translate(11.12 45.096)" fill="#ff745c" stroke="#666" stroke-miterlimit="10" stroke-width="1">
        <rect width="159.381" height="253.897" stroke="none"/>
        <rect x="-0.5" y="-0.5" width="160.381" height="254.897" fill="none"/>
      </g>
      <g id="Ellipse_5" data-name="Ellipse 5" transform="translate(79.073 309.804)" fill="none" stroke="#828282" stroke-miterlimit="10" stroke-width="4">
        <circle cx="11.737" cy="11.737" r="11.737" stroke="none"/>
        <circle cx="11.737" cy="11.737" r="13.737" fill="none"/>
      </g>
      <g id="Group_216" data-name="Group 216" transform="translate(63.011 27.799)">
        <rect id="Rectangle_79" data-name="Rectangle 79" width="42.625" height="4.324" rx="2.162" transform="translate(12.973)" fill="#7b7b7b"/>
        <circle id="Ellipse_6" data-name="Ellipse 6" cx="2.471" cy="2.471" r="2.471" fill="#7b7b7b"/>
      </g>
      <path id="Path_123" data-name="Path 123" d="M482.809,507.081,642.19,322.99l-.309-27.49H482.5Z" transform="translate(-471.689 -250.713)" fill="#ff8974"/>
      <line id="Line_10" data-name="Line 10" y1="37.683" x2="34.594" transform="translate(67.026 234.438)" fill="none" stroke="#ff8c78" stroke-linecap="round" stroke-linejoin="round" stroke-width="12"/>
      <line id="Line_11" data-name="Line 11" y1="13.591" x2="12.973" transform="translate(122.624 199.226)" fill="none" stroke="#ff8c78" stroke-linecap="round" stroke-linejoin="round" stroke-width="12"/>
    </g>
    <path id="Rectangle_80" data-name="Rectangle 80" d="M0,0H0A2.471,2.471,0,0,1,2.471,2.471V29.652A2.471,2.471,0,0,1,0,32.123H0a0,0,0,0,1,0,0V0A0,0,0,0,1,0,0Z" transform="translate(563.752 264.698)" fill="#757575"/>
    <path id="Rectangle_81" data-name="Rectangle 81" d="M0,0H0A2.471,2.471,0,0,1,2.471,2.471V29.652A2.471,2.471,0,0,1,0,32.123H0a0,0,0,0,1,0,0V0A0,0,0,0,1,0,0Z" transform="translate(563.752 301.764)" fill="#757575"/>
    <path id="Rectangle_82" data-name="Rectangle 82" d="M0,0H0A2.471,2.471,0,0,1,2.471,2.471V29.652A2.471,2.471,0,0,1,0,32.123H0a0,0,0,0,1,0,0V0A0,0,0,0,1,0,0Z" transform="translate(563.752 498.21)" fill="#757575"/>
  </g>
</svg>
