<svg xmlns="http://www.w3.org/2000/svg" width="394.6" height="394.6" viewBox="0 0 394.6 394.6">
  <g id="reminders" transform="translate(-350 -177)">
    <path id="Path_235" data-name="Path 235" d="M697.857,461.021a109.048,109.048,0,1,1-192.57-89.333" transform="translate(-43.736 -64.746)" fill="none" stroke="#ff745c" stroke-miterlimit="10" stroke-width="3"/>
    <path id="Path_236" data-name="Path 236" d="M646,309A109.036,109.036,0,0,1,755.036,418.036" transform="translate(-98.7 -43.736)" fill="none" stroke="#ff745c" stroke-miterlimit="10" stroke-width="3"/>
    <path id="Path_237" data-name="Path 237" d="M654.123,606.43A194.888,194.888,0,0,1,547.3,638.11c-108.137,0-195.8-87.663-195.8-195.8a195.635,195.635,0,0,1,9.65-60.883" transform="translate(0 -68.01)" fill="none" stroke="#ff745c" stroke-miterlimit="10" stroke-width="3"/>
    <path id="Path_238" data-name="Path 238" d="M409.7,257.42a195.51,195.51,0,0,1,157.1-78.92c108.137,0,195.8,87.663,195.8,195.8a195.233,195.233,0,0,1-60.151,141.2" transform="translate(-19.507)" fill="none" stroke="#ff745c" stroke-miterlimit="10" stroke-width="3"/>
    <path id="Path_239" data-name="Path 239" d="M379.118,336.48a195.422,195.422,0,0,1,13.03-23.485" transform="translate(-9.256 -45.075)" fill="none" stroke="#ff745c" stroke-miterlimit="10" stroke-width="3"/>
    <line id="Line_32" data-name="Line 32" x2="2.305" y2="8.643" transform="translate(390.239 366.322)" fill="none" stroke="#ff745c" stroke-miterlimit="10" stroke-width="3"/>
    <line id="Line_33" data-name="Line 33" y1="2.305" x2="8.643" transform="translate(387.07 369.491)" fill="none" stroke="#ff745c" stroke-miterlimit="10" stroke-width="3"/>
    <g id="Group_255" data-name="Group 255" transform="translate(645.699 260.61)">
      <line id="Line_34" data-name="Line 34" x1="0.436" y2="8.643" transform="translate(4.104)" fill="none" stroke="#ff745c" stroke-miterlimit="10" stroke-width="3"/>
      <line id="Line_35" data-name="Line 35" x2="8.643" y2="0.436" transform="translate(0 4.104)" fill="none" stroke="#ff745c" stroke-miterlimit="10" stroke-width="3"/>
    </g>
    <path id="Path_240" data-name="Path 240" d="M481.728,659c-7.978,0-9.308,11.3,0,12.632" transform="translate(-41.469 -161.037)" fill="none" stroke="#ff745c" stroke-miterlimit="10" stroke-width="3"/>
    <path id="Path_241" data-name="Path 241" d="M876.653,470.026c4.833-6.347-3.354-14.253-10.051-7.653" transform="translate(-172.633 -94.304)" fill="none" stroke="#ff745c" stroke-miterlimit="10" stroke-width="3"/>
    <circle id="Ellipse_31" data-name="Ellipse 31" cx="5.319" cy="5.319" r="5.319" transform="translate(497.436 219.389)" fill="none" stroke="#ff745c" stroke-miterlimit="10" stroke-width="3"/>
    <circle id="Ellipse_32" data-name="Ellipse 32" cx="5.319" cy="5.319" r="5.319" transform="translate(672.293 478.018)" fill="none" stroke="#ff745c" stroke-miterlimit="10" stroke-width="3"/>
    <g id="Group_256" data-name="Group 256" transform="translate(441.404 264.802)">
      <path id="Path_243" data-name="Path 243" d="M491.406,317.027a13.46,13.46,0,0,1,.541-8.722l-4.207,9.845a13.465,13.465,0,0,0-.542,8.722L541.837,541.1l4.207-9.844Z" transform="translate(-486.724 -308.305)" fill="#a7a7a7"/>
      <g id="Group_260" data-name="Group 260">
        <path id="Path_242" data-name="Path 242" d="M793.823,657.117a18.033,18.033,0,0,1-12.123,4.415l-4.206,9.845a18.03,18.03,0,0,0,12.122-4.415,12.946,12.946,0,0,0,3.12-4.4l4.207-9.845A12.955,12.955,0,0,1,793.823,657.117Z" transform="translate(-584.174 -423.733)" fill="#656565"/>
        <path id="Path_244" data-name="Path 244" d="M724.408,665.975l-4.207,9.845L606.544,677.8l4.207-9.845Z" transform="translate(-526.881 -428.176)" fill="#656565"/>
        <path id="Path_245" data-name="Path 245" d="M597.2,660.466a26.643,26.643,0,0,1-9.587-2.155c-6.742-2.877-12.17-8.337-13.784-14.669l-4.207,9.844c1.615,6.331,7.043,11.793,13.785,14.669a26.652,26.652,0,0,0,9.587,2.155q.587.018,1.177.008l4.207-9.845Q597.786,660.484,597.2,660.466Z" transform="translate(-514.506 -420.691)" fill="#656565"/>
      </g>
    </g>
    <path id="Path_246" data-name="Path 246" d="M622.967,292.062c11.138-.194,22.129,7.341,24.55,16.832l54.638,214.228c2.42,9.491-4.646,17.341-15.784,17.536l-113.657,1.984c-11.138.194-22.128-7.341-24.549-16.832L493.526,311.582c-2.421-9.491,4.645-17.342,15.784-17.536Z" transform="translate(-47.44 -38.058)" fill="#e6e6e6"/>
    <path id="Path_247" data-name="Path 247" d="M622.967,292.062c11.138-.194,22.129,7.341,24.55,16.832l54.638,214.228c2.42,9.491-4.646,17.341-15.784,17.536l-113.657,1.984c-11.138.194-22.128-7.341-24.549-16.832L493.526,311.582c-2.421-9.491,4.645-17.342,15.784-17.536Z" transform="translate(-47.44 -38.058)" fill="none"/>
    <g id="Group_257" data-name="Group 257" transform="translate(456.115 267.67)">
      <path id="Path_248" data-name="Path 248" d="M620.7,498.444a4.211,4.211,0,0,1-2.306-.666c-1.534-.98-2.05-2.671-1.152-3.78l22.388-27.736a2.709,2.709,0,0,1,2.1-.91,4.185,4.185,0,0,1,2.3.668c1.534.98,2.05,2.67,1.157,3.78L622.79,497.536a2.7,2.7,0,0,1-2.093.908m36.211-43.669a4.208,4.208,0,0,1-2.356-.7c-1.515-.995-1.993-2.691-1.067-3.782l8.493-10.011a2.722,2.722,0,0,1,2.062-.868,4.188,4.188,0,0,1,2.356.7c1.515.995,2,2.691,1.072,3.782l-8.5,10.011a2.723,2.723,0,0,1-2.063.869m14.014-104.921L569.713,485.211l7.855,30.8L712.7,513.648,670.923,349.854m-5.008-19.638-.257,0,5.266,19.633-5.008-19.638" transform="translate(-529.248 -318.517)" fill="#ff745c"/>
      <path id="Path_249" data-name="Path 249" d="M549.315,484.658,510.062,331.8,645.2,329.441l.061.227.257,0,5.008,19.638L692.3,513.1,557.17,515.454l-7.855-30.8M646.5,328.566l-1.262.022-135.13,2.359-1.262.022.274,1.075,46.784,183.432.273,1.07,1.262-.022,135.13-2.358,1.262-.022-.273-1.07L646.778,329.641l-.274-1.075" transform="translate(-508.85 -317.964)" fill="#656565"/>
      <path id="Path_250" data-name="Path 250" d="M685.1,634.743c-4.881.085-9.693-3.217-10.753-7.373s2.032-7.6,6.913-7.681,9.692,3.213,10.753,7.373-2.032,7.6-6.914,7.681m-4.538-17.794c-6.641.116-10.874,4.819-9.43,10.478s8.026,10.168,14.666,10.051,10.876-4.813,9.432-10.472-8.027-10.173-14.668-10.057" transform="translate(-563.144 -414.613)" fill="#797878"/>
      <path id="Path_251" data-name="Path 251" d="M623.572,312.62l-32.476.566c-1.013.018-1.655.731-1.435,1.594a2.293,2.293,0,0,0,2.231,1.529l32.476-.566c1.013-.018,1.655-.731,1.435-1.594a2.294,2.294,0,0,0-2.231-1.53" transform="translate(-535.919 -312.619)" fill="#818181"/>
      <path id="Path_252" data-name="Path 252" d="M574.838,313.754c-1.16.021-1.895.837-1.644,1.82a2.627,2.627,0,0,0,2.555,1.752c1.154-.02,1.889-.837,1.636-1.825a2.624,2.624,0,0,0-2.547-1.747" transform="translate(-530.398 -313)" fill="#818181"/>
      <path id="Path_253" data-name="Path 253" d="M645.809,329.882l-135.136,2.359L549.926,485.1,651.136,349.742l-5.266-19.633-.061-.227" transform="translate(-509.461 -318.405)" fill="#ff8974"/>
      <path id="Path_254" data-name="Path 254" d="M665.461,533.471a2.709,2.709,0,0,0-2.1.91l-22.388,27.736c-.9,1.11-.382,2.8,1.152,3.78a4.211,4.211,0,0,0,2.306.666,2.7,2.7,0,0,0,2.093-.907l22.392-27.737c.894-1.11.377-2.8-1.157-3.78a4.185,4.185,0,0,0-2.3-.668" transform="translate(-552.983 -386.636)" fill="#ff8c78"/>
      <path id="Path_255" data-name="Path 255" d="M706.031,494.452a2.722,2.722,0,0,0-2.062.868l-8.493,10.011c-.926,1.091-.448,2.787,1.067,3.782a4.208,4.208,0,0,0,2.356.7,2.723,2.723,0,0,0,2.063-.869l8.5-10.011c.926-1.091.443-2.787-1.072-3.782a4.189,4.189,0,0,0-2.356-.7" transform="translate(-571.238 -373.559)" fill="#ff8c78"/>
    </g>
    <g id="Group_258" data-name="Group 258" transform="translate(525.379 336.101)">
      <path id="Path_256" data-name="Path 256" d="M619.142,473.819c3.07-5.578,2.4-17.123-2-34.366-2.286-8.962,5.335-16.078,13.415-16.219s19.248,6.647,21.533,15.609c4.4,17.244,9.594,28.709,15.469,34.132l-48.417.845m10.148-53.963a.907.907,0,0,1-.878-.6c-.086-.338.168-.62.564-.628a.908.908,0,0,1,.879.6c.086.338-.169.62-.565.628m-1.1-4.31c-2.386.041-3.913,1.732-3.393,3.77a3.989,3.989,0,0,0,.715,1.423c-7.893,2.03-14.374,9.387-11.979,18.776,6.693,26.245,3.108,32.95.372,34.612a1.226,1.226,0,0,0-.37,1.748,2.368,2.368,0,0,0,2.029,1.094l57.14-1a1.344,1.344,0,0,0,1.456-1.155,1.9,1.9,0,0,0-1.255-1.719c-3.556-1.552-10.515-8.073-17.208-34.318-2.5-9.8-13.029-16.854-22.169-18.336a3.025,3.025,0,0,0-.059-1.279,5.433,5.433,0,0,0-5.278-3.619" transform="translate(-613.029 -415.546)" fill="#fff"/>
      <path id="Path_257" data-name="Path 257" d="M661.949,508.441l-3.615.063.157.614c.26,1.02-.5,1.862-1.694,1.883a2.709,2.709,0,0,1-2.635-1.807l-.157-.615-3.615.063.157.615c.692,2.715,3.85,4.879,7.035,4.823s5.215-2.311,4.523-5.025l-.157-.615" transform="translate(-625.551 -446.679)" fill="#fff"/>
    </g>
  </g>
</svg>
