<svg xmlns="http://www.w3.org/2000/svg" width="319.095" height="479.499" viewBox="0 0 319.095 479.499">
  <g id="reports-and-analytics" transform="translate(-366.148 -173.074)">
    <circle id="Ellipse_22" data-name="Ellipse 22" cx="7.257" cy="7.257" r="7.257" transform="translate(386.878 204.05)" fill="none" stroke="#ff745c" stroke-miterlimit="10" stroke-width="4"/>
    <circle id="Ellipse_23" data-name="Ellipse 23" cx="7.257" cy="7.257" r="7.257" transform="translate(575.568 636.06)" fill="none" stroke="#ff745c" stroke-miterlimit="10" stroke-width="4"/>
    <circle id="Ellipse_24" data-name="Ellipse 24" cx="4.889" cy="4.889" r="4.889" transform="translate(669.09 479.874)" fill="#ff745c"/>
    <circle id="Ellipse_25" data-name="Ellipse 25" cx="4.889" cy="4.889" r="4.889" transform="translate(366.148 390.893)" fill="#ff745c"/>
    <g id="Group_249" data-name="Group 249" transform="translate(382.914 593.03)">
      <line id="Line_24" data-name="Line 24" x1="16.889" y1="0.282" transform="translate(0 8.303)" fill="none" stroke="#ff745c" stroke-miterlimit="10" stroke-width="4"/>
      <line id="Line_25" data-name="Line 25" y1="16.889" x2="0.282" transform="translate(8.303)" fill="none" stroke="#ff745c" stroke-miterlimit="10" stroke-width="4"/>
    </g>
    <g id="Group_250" data-name="Group 250" transform="translate(643.238 185.204)">
      <line id="Line_26" data-name="Line 26" x1="16.889" y1="0.282" transform="translate(0 8.303)" fill="none" stroke="#ff745c" stroke-miterlimit="10" stroke-width="4"/>
      <line id="Line_27" data-name="Line 27" y1="16.889" x2="0.282" transform="translate(8.303 0)" fill="none" stroke="#ff745c" stroke-miterlimit="10" stroke-width="4"/>
    </g>
    <g id="Group_252" data-name="Group 252" transform="translate(426.09 204.068)">
      <rect id="Rectangle_100" data-name="Rectangle 100" width="208.277" height="394.593" rx="40.869" transform="translate(0 0)" fill="#dadada"/>
      <path id="Path_225" data-name="Path 225" d="M709.441,246.79V586.834a27.277,27.277,0,0,1-27.275,27.274h-12.4l-27.983-51.715,54.549-.354V270.877l-77.927-.709-26.566-50.652h90.324A27.277,27.277,0,0,1,709.441,246.79Z" transform="translate(-501.164 -219.516)" fill="#e8e8e8"/>
      <g id="Rectangle_101" data-name="Rectangle 101" transform="translate(12.752 51.715)" fill="#ff745c" stroke="#707070" stroke-miterlimit="10" stroke-width="1">
        <rect width="182.774" height="291.163" stroke="none"/>
        <rect x="-0.5" y="-0.5" width="183.774" height="292.163" fill="none"/>
      </g>
      <g id="Ellipse_26" data-name="Ellipse 26" transform="translate(90.678 355.275)" fill="none" stroke="#858585" stroke-miterlimit="10" stroke-width="4">
        <circle cx="13.46" cy="13.46" r="13.46" stroke="none"/>
        <circle cx="13.46" cy="13.46" r="15.46" fill="none"/>
      </g>
      <g id="Group_251" data-name="Group 251" transform="translate(72.259 31.879)">
        <rect id="Rectangle_102" data-name="Rectangle 102" width="48.881" height="4.959" rx="2.479" transform="translate(14.877)" fill="#838383"/>
        <circle id="Ellipse_27" data-name="Ellipse 27" cx="2.834" cy="2.834" r="2.834" fill="#838383"/>
      </g>
      <path id="Path_226" data-name="Path 226" d="M474.9,539.112,657.672,328l-.354-31.525H474.544Z" transform="translate(-462.146 -245.115)" fill="#ff8974"/>
      <line id="Line_28" data-name="Line 28" y1="43.214" x2="39.672" transform="translate(76.864 268.847)" fill="none" stroke="#ff8c78" stroke-linecap="round" stroke-linejoin="round" stroke-width="12"/>
      <line id="Line_29" data-name="Line 29" y1="15.585" x2="14.877" transform="translate(140.622 228.467)" fill="none" stroke="#ff8c78" stroke-linecap="round" stroke-linejoin="round" stroke-width="12"/>
    </g>
    <rect id="Rectangle_103" data-name="Rectangle 103" width="27.362" height="117.875" rx="7.868" transform="translate(472.463 358.069)" fill="none" stroke="#fff" stroke-miterlimit="10" stroke-width="4"/>
    <rect id="Rectangle_104" data-name="Rectangle 104" width="27.362" height="80.407" rx="7.868" transform="translate(516.278 395.536)" fill="#fff" stroke="#fff" stroke-miterlimit="10" stroke-width="4"/>
    <path id="Path_227" data-name="Path 227" d="M663.708,611.515l-11.188-.137,30.732-30.733v11.326Z" transform="translate(-95.257 -135.572)" fill="#fff"/>
    <path id="Path_228" data-name="Path 228" d="M652.387,598.17l.088-11.413,30.732-30.732V567.35Z" transform="translate(-95.213 -127.382)" fill="#fff"/>
    <path id="Path_229" data-name="Path 229" d="M652.387,573.55l.088-11.413L683.207,531.4V542.73Z" transform="translate(-95.213 -119.193)" fill="#fff"/>
    <path id="Path_230" data-name="Path 230" d="M685.291,620l-8.152-.435,14.3-14.3v8.907a5.84,5.84,0,0,1-1.71,4.128h0A5.839,5.839,0,0,1,685.291,620Z" transform="translate(-103.446 -143.761)" fill="#fff"/>
    <path id="Path_231" data-name="Path 231" d="M652.519,548.841V537.516l30.732-30.732v11.325Z" transform="translate(-95.257 -111.003)" fill="#fff"/>
    <path id="Path_232" data-name="Path 232" d="M652.519,524.221V512.9l30.732-30.732v11.325Z" transform="translate(-95.257 -102.814)" fill="#fff"/>
    <path id="Path_233" data-name="Path 233" d="M652.387,505.333l.088-11.413,18.942-18.942,11.79-.465Z" transform="translate(-95.213 -100.269)" fill="#fff"/>
    <path id="Path_234" data-name="Path 234" d="M652.519,488.855v-9.378a4.7,4.7,0,0,1,1.377-3.324h0a4.7,4.7,0,0,1,3.254-1.376l9.589-.142Z" transform="translate(-95.256 -100.309)" fill="#fff"/>
    <g id="Group_253" data-name="Group 253" transform="translate(476.787 316.565)">
      <circle id="Ellipse_28" data-name="Ellipse 28" cx="5.171" cy="5.171" r="5.171" transform="translate(0 0.926)" fill="none" stroke="#fff" stroke-miterlimit="10" stroke-width="4"/>
      <circle id="Ellipse_29" data-name="Ellipse 29" cx="5.171" cy="5.171" r="5.171" transform="translate(48.094 34.557)" fill="none" stroke="#fff" stroke-miterlimit="10" stroke-width="4"/>
      <circle id="Ellipse_30" data-name="Ellipse 30" cx="5.171" cy="5.171" r="5.171" transform="translate(90.627)" fill="none" stroke="#fff" stroke-miterlimit="10" stroke-width="4"/>
      <line id="Line_30" data-name="Line 30" x1="33.602" y2="28.77" transform="translate(57.652 8.226)" fill="none" stroke="#fff" stroke-miterlimit="10" stroke-width="4"/>
      <line id="Line_31" data-name="Line 31" x1="39.368" y1="27.916" transform="translate(9.355 9.34)" fill="none" stroke="#fff" stroke-miterlimit="10" stroke-width="4"/>
    </g>
    <rect id="Rectangle_105" data-name="Rectangle 105" width="11.93" height="11.93" transform="translate(682.414 351.404) rotate(135)" fill="none" stroke="#ff745c" stroke-miterlimit="10" stroke-width="4"/>
    <rect id="Rectangle_106" data-name="Rectangle 106" width="5.829" height="5.829" transform="translate(516.769 181.318) rotate(-135)" fill="#ff745c"/>
    <rect id="Rectangle_107" data-name="Rectangle 107" width="5.829" height="5.829" transform="translate(472.463 640.182) rotate(-135)" fill="#ff745c"/>
  </g>
</svg>
